<svg xmlns="http://www.w3.org/2000/svg" viewBox="0 0 1921.07 362.01"><defs><style>.cls-1{fill:#fff;}</style></defs><title>buttom-objects</title><g id="Layer_2" data-name="Layer 2"><g id="Home_Page" data-name="Home Page"><g id="objects"><g id="bottom_objects" data-name="bottom objects"><path class="cls-1" d="M1773.22,202.76a6,6,0,0,1-6.94,4.86,5.24,5.24,0,0,1-.8-.22c-.58,2.53-1.26,5-2,7.48a4.83,4.83,0,0,1,.81.21,6,6,0,1,1-4.1,11.26,6.67,6.67,0,0,1-.76-.37q-1.53,3.57-3.28,7a5.89,5.89,0,0,1,.77.35,6,6,0,0,1-6,10.38,7.08,7.08,0,0,1-.71-.51c-1.41,2.16-2.9,4.28-4.45,6.34a5.9,5.9,0,0,1,.73.5,6,6,0,0,1-7.7,9.18,6.45,6.45,0,0,1-.63-.65q-2.64,2.84-5.48,5.48a5.45,5.45,0,0,1,.64.63,6,6,0,1,1-9.68,7c-2.05,1.56-4.17,3-6.33,4.45a6.14,6.14,0,0,1,.5.72,6,6,0,0,1-10.37,6,6.68,6.68,0,0,1-.35-.78q-2.55,1.31-5.16,2.47l10.81,24.86a1.09,1.09,0,0,1-.09,1,1.07,1.07,0,0,1-.9.49H1694.2a1.08,1.08,0,0,1-1-.77l-6-20.2q-2.81.81-5.67,1.47a5.24,5.24,0,0,1,.22.8,6,6,0,1,1-11.8,2.08,5.9,5.9,0,0,1-.06-.83q-3.82.46-7.72.67a5.7,5.7,0,0,1,.08.84,6,6,0,0,1-12,0,5.83,5.83,0,0,1,.08-.84c-2.59-.13-5.17-.36-7.71-.67a5.88,5.88,0,0,1-7,5.69,6,6,0,0,1-4.86-6.94,6.71,6.71,0,0,1,.22-.8q-2.87-.66-5.67-1.47l-6,20.2a1.08,1.08,0,0,1-1,.77H1600.7a1.07,1.07,0,0,1-.91-.49,1.09,1.09,0,0,1-.09-1l10.81-24.86q-2.61-1.17-5.15-2.47a6.78,6.78,0,0,1-.36.78,6,6,0,1,1-10.37-6,6.21,6.21,0,0,1,.51-.72q-3.26-2.12-6.34-4.45a5.9,5.9,0,0,1-.5.73,6,6,0,1,1-9.18-7.7,7.6,7.6,0,0,1,.64-.63q-2.84-2.64-5.48-5.48a4.82,4.82,0,0,1-.63.65,6,6,0,0,1-7.7-9.18,5.9,5.9,0,0,1,.73-.5c-1.55-2.06-3-4.18-4.45-6.34a5.35,5.35,0,0,1-.71.51,6,6,0,0,1-6-10.38,5.89,5.89,0,0,1,.77-.35q-1.75-3.45-3.28-7a6,6,0,1,1-4.85-10.89,4.49,4.49,0,0,1,.8-.21c-.75-2.46-1.43-4.95-2-7.48a5.24,5.24,0,0,1-.8.22,6,6,0,1,1-1.24-11.86q-.47-3.82-.68-7.72a5.56,5.56,0,0,1-.83.08,6,6,0,1,1,0-12,5.57,5.57,0,0,1,.83.07q.21-3.89.68-7.71a6,6,0,1,1,1.24-11.86,6.69,6.69,0,0,1,.8.21c.58-2.52,1.26-5,2-7.47a7.23,7.23,0,0,1-.8-.21,6,6,0,0,1,4.09-11.26,5.91,5.91,0,0,1,.76.36c1-2.38,2.11-4.72,3.29-7a4.58,4.58,0,0,1-.78-.36,6,6,0,1,1,6-10.37,5.35,5.35,0,0,1,.71.51q2.13-3.26,4.45-6.34a5.9,5.9,0,0,1-.73-.5,6,6,0,0,1,7.7-9.18,5.42,5.42,0,0,1,.63.64c1.77-1.89,3.59-3.71,5.48-5.47a7.6,7.6,0,0,1-.64-.63,6,6,0,1,1,9.18-7.7,5.79,5.79,0,0,1,.5.72q3.09-2.32,6.34-4.44a6.21,6.21,0,0,1-.51-.72,6,6,0,1,1,10.37-6,5,5,0,0,1,.36.78c2.29-1.18,4.63-2.27,7-3.29a5.91,5.91,0,0,1-.36-.76,6,6,0,0,1,11.26-4.09,7.23,7.23,0,0,1,.21.8q3.69-1.12,7.47-2a7.1,7.1,0,0,1-.22-.79,6,6,0,1,1,11.8-2.08,5.81,5.81,0,0,1,.07.83c2.54-.31,5.12-.54,7.71-.67a5.83,5.83,0,0,1-.08-.84,6,6,0,0,1,12,0,5.83,5.83,0,0,1-.08.84c2.6.13,5.17.36,7.71.67a5.81,5.81,0,0,1,.07-.83,6,6,0,0,1,11.8,2.08,7.1,7.1,0,0,1-.22.79c2.52.59,5,1.26,7.48,2a4.49,4.49,0,0,1,.21-.8,6,6,0,1,1,11.25,4.09,6.76,6.76,0,0,1-.36.77q3.57,1.52,7,3.28a7.83,7.83,0,0,1,.36-.78,6,6,0,0,1,10.37,6,6.21,6.21,0,0,1-.51.72q3.26,2.11,6.34,4.44a5,5,0,0,1,.51-.72,6,6,0,1,1,9.17,7.7,5.45,5.45,0,0,1-.64.63q2.83,2.64,5.48,5.47a6.33,6.33,0,0,1,.63-.64,6,6,0,0,1,7.7,9.18,5.9,5.9,0,0,1-.73.5c1.55,2.06,3,4.17,4.45,6.34a6.09,6.09,0,0,1,.71-.51,6,6,0,0,1,6,10.37,4.87,4.87,0,0,1-.77.36q1.75,3.43,3.28,7a5.91,5.91,0,0,1,.76-.36,6,6,0,1,1,4.1,11.26,8,8,0,0,1-.81.21c.75,2.46,1.43,5,2,7.47a6.69,6.69,0,0,1,.8-.21,6,6,0,1,1,1.24,11.86q.46,3.83.68,7.71a5.69,5.69,0,0,1,.83-.07,6,6,0,1,1,0,12,5.69,5.69,0,0,1-.83-.08q-.21,3.9-.68,7.72a5.88,5.88,0,0,1,5.7,7ZM1726,267l-2.85-3.4A106.3,106.3,0,0,1,1709.9,273l2.22,3.84A110,110,0,0,0,1726,267ZM1721.8,262l-58.45-69.66,45.47,78.76A104.91,104.91,0,0,0,1721.8,262Zm-47.55,28.64-.77-4.37a105.11,105.11,0,0,1-16.18,1.4v4.45A110,110,0,0,0,1674.25,290.61Zm-19.11,1.48v-4.45a105.33,105.33,0,0,1-16.18-1.4l-.77,4.37A110,110,0,0,0,1655.14,292.09Zm-54.82-15.3,2.22-3.84a106.19,106.19,0,0,1-13.28-9.32l-2.86,3.4A110,110,0,0,0,1600.32,276.79Zm3.3-5.72,45.47-78.76L1590.65,262A104.05,104.05,0,0,0,1603.62,271.07Zm162.55-87.85h-4.44a106.35,106.35,0,0,1-1.4,16.17l4.37.77A108.75,108.75,0,0,0,1766.17,183.22Zm-8.35-20.1a101.93,101.93,0,0,0-4.11-15.32l-85.49,31.12Zm-89.22,17.93h91a102.89,102.89,0,0,0-1.37-15.8ZM1753,145.77a103.26,103.26,0,0,0-6.72-14.36l-78.77,45.47Zm-62.42-61.12a101.8,101.8,0,0,0-15.31-4.11l-15.8,89.59Zm-29.08,86.22L1707,92.11a103.8,103.8,0,0,0-14.36-6.72Zm11.63-90.71a104,104,0,0,0-15.8-1.37v91Zm-18-1.37a104,104,0,0,0-15.8,1.37l15.8,89.59Zm-17.93,1.75a101.93,101.93,0,0,0-15.32,4.11L1653,170.14Zm-17.35,4.85a103.26,103.26,0,0,0-14.36,6.72L1651,170.87Zm-61.13,62.41a104.37,104.37,0,0,0-4.11,15.32l89.6,15.8ZM1645,176.88l-78.76-45.47a101,101,0,0,0-6.72,14.36Zm-90.71-11.63a102.89,102.89,0,0,0-1.37,15.8h91Zm-1.37,18a102.89,102.89,0,0,0,1.37,15.8l89.59-15.8Zm1.74,17.93a104.24,104.24,0,0,0,4.11,15.31l85.49-31.11Zm4.85,17.35a102.18,102.18,0,0,0,6.73,14.36L1645,187.38Zm194.24-2a101.8,101.8,0,0,0,4.11-15.31l-89.6-15.8Zm-86.23-29.08,78.77,45.48A103.26,103.26,0,0,0,1753,218.5ZM1758.19,199a102.89,102.89,0,0,0,1.37-15.8h-91Zm8-18a108.75,108.75,0,0,0-1.47-16.94l-4.37.77a106.35,106.35,0,0,1,1.4,16.17ZM1764.33,162a108.9,108.9,0,0,0-4.41-16.43l-4.18,1.52a104.34,104.34,0,0,1,4.21,15.68Zm-5.15-18.46a109.73,109.73,0,0,0-7.21-15.4l-3.85,2.22A104.19,104.19,0,0,1,1755,145Zm-8.3-17.28a110.76,110.76,0,0,0-9.77-13.92l-3.4,2.86a105.15,105.15,0,0,1,9.32,13.28Zm-14.83-9.67L1666.4,175l78.76-45.47A103.19,103.19,0,0,0,1736.05,116.56Zm-1.39-1.66a104.9,104.9,0,0,0-11.21-11.2L1665,173.35Zm-12.87-12.6a103,103,0,0,0-13-9.1L1663.35,172Zm1.4-1.66,2.85-3.4a111.07,111.07,0,0,0-13.92-9.77l-2.22,3.85A107,107,0,0,1,1723.19,100.64Zm-12.94-14.25a108.61,108.61,0,0,0-15.4-7.21l-1.52,4.17a105.32,105.32,0,0,1,14.7,6.88Zm-17.44-8A108.58,108.58,0,0,0,1676.38,74l-.77,4.37a105.22,105.22,0,0,1,15.68,4.21Zm-35.51-6.26v4.45a105.11,105.11,0,0,1,16.18,1.4l.77-4.38A111.26,111.26,0,0,0,1657.3,72.18Zm-2.16,0a111.26,111.26,0,0,0-17,1.47L1639,78a105.33,105.33,0,0,1,16.18-1.4ZM1636.06,74a108.58,108.58,0,0,0-16.43,4.41l1.52,4.17a105.22,105.22,0,0,1,15.68-4.21Zm-18.46,5.15a108.73,108.73,0,0,0-15.41,7.21l2.22,3.84a105.86,105.86,0,0,1,14.7-6.88Zm-31.2,18.06,2.86,3.4a106.19,106.19,0,0,1,13.28-9.32l-2.22-3.85A111.07,111.07,0,0,0,1586.4,97.24Zm4.25,5.06L1649.09,172,1603.62,93.2A103,103,0,0,0,1590.65,102.3Zm-1.66,1.4a104.9,104.9,0,0,0-11.21,11.2l69.66,58.45Zm-12.6,12.86a103.19,103.19,0,0,0-9.11,13L1646.05,175Zm-1.66-1.39-3.4-2.86a110.76,110.76,0,0,0-9.77,13.92l3.85,2.22A106.19,106.19,0,0,1,1574.73,115.17Zm-14.26,12.94a110.87,110.87,0,0,0-7.21,15.4l4.18,1.52a105.32,105.32,0,0,1,6.88-14.7Zm-8,17.43a110.09,110.09,0,0,0-4.41,16.43l4.38.77a104.34,104.34,0,0,1,4.21-15.68Zm-6.25,35.51h4.44a106.35,106.35,0,0,1,1.41-16.17l-4.38-.77A111.24,111.24,0,0,0,1546.27,181.05Zm0,2.17a111.24,111.24,0,0,0,1.47,16.94l4.38-.77a106.35,106.35,0,0,1-1.41-16.17Zm1.84,19.08a110,110,0,0,0,4.41,16.42l4.18-1.51a104.14,104.14,0,0,1-4.21-15.69Zm5.15,18.46a110.87,110.87,0,0,0,7.21,15.4l3.85-2.22a105.32,105.32,0,0,1-6.88-14.7Zm8.3,17.28a110.76,110.76,0,0,0,9.77,13.92l3.4-2.86a105.15,105.15,0,0,1-9.32-13.28Zm14.83,9.67L1646,189.26l-78.76,45.47A103.92,103.92,0,0,0,1576.39,247.71Zm1.39,1.65A104.08,104.08,0,0,0,1589,260.57l58.45-69.65Zm27.72,22.8q4.14,2.34,8.51,4.31l33.57-77.2Zm22.29,9.35q4.62,1.33,9.42,2.22l14.68-83.27Zm11.55,2.6a105.34,105.34,0,0,0,15.8,1.37v-91Zm33.76,0-15.8-89.6v91A105.34,105.34,0,0,0,1673.1,284.11Zm2.14-.38q4.79-.89,9.42-2.22l-24.11-81Zm23.19-7.26q4.36-2,8.52-4.31l-42.09-72.89Zm25-15.9a103.18,103.18,0,0,0,11.21-11.21L1665,190.92Zm12.6-12.86a103.92,103.92,0,0,0,9.11-13l-78.76-45.47Zm1.66,1.39,3.4,2.86a110.76,110.76,0,0,0,9.77-13.92l-3.85-2.22A105.15,105.15,0,0,1,1737.71,249.1ZM1752,236.16a109.73,109.73,0,0,0,7.21-15.4l-4.18-1.52a104.19,104.19,0,0,1-6.88,14.7Zm8-17.44a108.77,108.77,0,0,0,4.41-16.42l-4.38-.78a104.46,104.46,0,0,1-4.21,15.69ZM1727.7,98.64l-2.86,3.4a107.18,107.18,0,0,1,11.48,11.47l3.4-2.85A111.82,111.82,0,0,0,1727.7,98.64Zm-155,12,3.41,2.85A106.17,106.17,0,0,1,1587.6,102l-2.85-3.4A111,111,0,0,0,1572.72,110.66Zm12,155,2.85-3.4a106.17,106.17,0,0,1-11.47-11.47l-3.41,2.85A111,111,0,0,0,1584.75,265.63Zm26.63,16.9,1.77-4.07q-4.49-2-8.74-4.43l-2.22,3.85Q1606.66,280.41,1611.38,282.53Zm14.52,5.32q5,1.42,10.16,2.39l.77-4.37c-3.27-.62-6.5-1.37-9.66-2.28Zm60.64,0-1.27-4.26c-3.16.91-6.38,1.66-9.66,2.28l.77,4.37Q1681.55,289.28,1686.54,287.85Zm14.53-5.32q4.71-2.11,9.18-4.65L1708,274q-4.24,2.42-8.74,4.43Zm38.65-28.92-3.4-2.85a107.18,107.18,0,0,1-11.48,11.47l2.86,3.4A111.82,111.82,0,0,0,1739.72,253.61Z"/><path class="cls-1" d="M1789.1,92.45h2V78.28h-.88a1.33,1.33,0,0,1-1.24-.83,1.35,1.35,0,0,1,.32-1.46s1.34-1.28,3.11-3.32a1.8,1.8,0,0,1-.06-.32V61.5a1.33,1.33,0,1,1,2.65,0v8a40.3,40.3,0,0,0,6.61-12.14V46.44h-.22a1.32,1.32,0,0,1-1.33-1.33V42.24a1.32,1.32,0,0,1,1.33-1.33h.82a64.61,64.61,0,0,0,8.48-28h-.26a1.33,1.33,0,1,1,0-2.65h.37V1.33a1.33,1.33,0,1,1,2.65,0v8.88h.37a1.33,1.33,0,0,1,0,2.65h-.27A64.71,64.71,0,0,0,1822,40.91h.82a1.33,1.33,0,0,1,1.33,1.33v2.87a1.33,1.33,0,0,1-1.33,1.33h-.22V57.33a40.75,40.75,0,0,0,6.6,12.14v-8a1.33,1.33,0,0,1,2.66,0V72.35a1.23,1.23,0,0,1-.07.32c1.77,2,3.08,3.29,3.11,3.32a1.33,1.33,0,0,1-.91,2.29h-.89V92.45h2a1.33,1.33,0,0,1,1.33,1.33v45.94a1.33,1.33,0,0,1-1.33,1.33h-2V295.52a1.32,1.32,0,0,1-1.32,1.32h-39.39a1.32,1.32,0,0,1-1.33-1.32V141.05h-2a1.33,1.33,0,0,1-1.32-1.33V93.78A1.33,1.33,0,0,1,1789.1,92.45Zm40.24,46.11h1.83v-1.22a.92.92,0,0,0-1.83,0Zm-29.26-56.5a1.73,1.73,0,1,0-3.46,0v8.35h3.46Zm-2.55,20.15v5.41a17.25,17.25,0,0,1,5.41-5.41Zm14.54,29.08a14.54,14.54,0,1,0-14.54-14.54A14.56,14.56,0,0,0,1812.07,131.29Zm-.91,6.05v1.22H1813v-1.22a.92.92,0,0,0-1.83,0Zm2.64-46.93V82.06a1.73,1.73,0,0,0-3.46,0v8.35Zm-10.32,0h3.46V82.06a1.73,1.73,0,1,0-3.46,0Zm2.23-21.32a.92.92,0,1,0-1.83,0v2.54h1.83Zm2.17-20.31a.92.92,0,1,0-1.83,0v5.67h1.83ZM1809.35,64a.92.92,0,1,0-1.83,0v2.55h1.83Zm1.94-15.22a.92.92,0,0,0-1.84,0v5.67h1.84Zm.78,19.39a.92.92,0,0,0-.91.92v2.54H1813V69.09A.92.92,0,0,0,1812.07,68.17Zm2.62-19.39a.92.92,0,1,0-1.83,0v5.67h1.83Zm.1,15.22v2.55h1.84V64a.92.92,0,0,0-1.84,0Zm3.31-15.22a.92.92,0,1,0-1.84,0v5.67h1.84Zm2.16,20.31a.92.92,0,1,0-1.83,0v2.54h1.83Zm.4,13a1.73,1.73,0,1,0-3.45,0v8.35h3.45Zm.55,20.15a17.25,17.25,0,0,1,5.41,5.41v-5.41Zm6.31-20.15a1.73,1.73,0,1,0-3.45,0v8.35h3.45Zm0,55.28a.92.92,0,0,0-1.84,0v1.22h1.84Zm-4.13,149.48a1.33,1.33,0,1,0,2.65,0V274.4a1.33,1.33,0,0,0-2.65,0Zm0-19.84a1.33,1.33,0,1,0,2.65,0V262.5a1.33,1.33,0,1,0-2.65,0Zm0-11.9a1.33,1.33,0,1,0,2.65,0V232.31a1.33,1.33,0,1,0-2.65,0Zm0-30.19a1.33,1.33,0,1,0,2.65,0v-4.48a1.33,1.33,0,1,0-2.65,0Zm0-11.9a1.33,1.33,0,0,0,2.65,0V190.22a1.33,1.33,0,1,0-2.65,0Zm0-30.19a1.33,1.33,0,1,0,2.65,0v-4.49a1.33,1.33,0,0,0-2.65,0Zm0-11.9a1.33,1.33,0,0,0,2.65,0V148.12a1.33,1.33,0,0,0-2.65,0Zm-1.34-32.34h1.83v-1.22a.92.92,0,0,0-1.83,0Zm4.55-7.27v-5.41a17.25,17.25,0,0,1-5.41,5.41Zm-6.36,6.05a.92.92,0,0,0-1.83,0v1.22h1.83Zm-3.18,149.48a1.33,1.33,0,1,0,2.65,0V274.4a1.33,1.33,0,0,0-2.65,0Zm0-19.84a1.33,1.33,0,1,0,2.65,0V262.5a1.33,1.33,0,1,0-2.65,0Zm0-11.9a1.33,1.33,0,1,0,2.65,0V232.31a1.33,1.33,0,1,0-2.65,0Zm0-30.19a1.33,1.33,0,1,0,2.65,0v-4.48a1.33,1.33,0,1,0-2.65,0Zm0-11.9a1.33,1.33,0,0,0,2.65,0V190.22a1.33,1.33,0,1,0-2.65,0Zm0-30.19a1.33,1.33,0,1,0,2.65,0v-4.49a1.33,1.33,0,0,0-2.65,0Zm0-11.9a1.33,1.33,0,0,0,2.65,0V148.12a1.33,1.33,0,0,0-2.65,0Zm-2.29-32.34h1.84v-1.22a.92.92,0,0,0-1.84,0Zm-4,148.26a1.33,1.33,0,1,0,2.65,0V274.4a1.33,1.33,0,0,0-2.65,0Zm0-19.84a1.33,1.33,0,1,0,2.65,0V262.5a1.33,1.33,0,1,0-2.65,0Zm0-11.9a1.33,1.33,0,1,0,2.65,0V232.31a1.33,1.33,0,1,0-2.65,0Zm0-30.19a1.33,1.33,0,1,0,2.65,0v-4.48a1.33,1.33,0,1,0-2.65,0Zm0-11.9a1.33,1.33,0,0,0,2.65,0V190.22a1.33,1.33,0,1,0-2.65,0Zm0-30.19a1.33,1.33,0,1,0,2.65,0v-4.49a1.33,1.33,0,0,0-2.65,0Zm0-11.9a1.33,1.33,0,0,0,2.65,0V148.12a1.33,1.33,0,0,0-2.65,0Zm-3.23-32.34h1.83v-1.22a.92.92,0,0,0-1.83,0Zm-3.1,148.26a1.33,1.33,0,1,0,2.65,0V274.4a1.33,1.33,0,0,0-2.65,0Zm0-19.84a1.33,1.33,0,1,0,2.65,0V262.5a1.33,1.33,0,1,0-2.65,0Zm0-11.9a1.33,1.33,0,1,0,2.65,0V232.31a1.33,1.33,0,1,0-2.65,0Zm0-30.19a1.33,1.33,0,1,0,2.65,0v-4.48a1.33,1.33,0,1,0-2.65,0Zm0-11.9a1.33,1.33,0,0,0,2.65,0V190.22a1.33,1.33,0,1,0-2.65,0Zm0-30.19a1.33,1.33,0,1,0,2.65,0v-4.49a1.33,1.33,0,0,0-2.65,0Zm0-11.9a1.33,1.33,0,0,0,2.65,0V148.12a1.33,1.33,0,0,0-2.65,0Zm-.54-32.34h1.83v-1.22a.92.92,0,0,0-1.83,0Zm-6.35-12.68v5.41h5.41A17.15,17.15,0,0,1,1797.53,125.88Zm4.55,11.46a.92.92,0,0,0-1.83,0v1.22h1.83Zm-4,149.48a1.33,1.33,0,1,0,2.65,0V274.4a1.33,1.33,0,0,0-2.65,0Zm0-19.84a1.33,1.33,0,1,0,2.65,0V262.5a1.33,1.33,0,1,0-2.65,0Zm0-11.9a1.33,1.33,0,1,0,2.65,0V232.31a1.33,1.33,0,1,0-2.65,0Zm0-30.19a1.33,1.33,0,1,0,2.65,0v-4.48a1.33,1.33,0,1,0-2.65,0Zm0-11.9a1.33,1.33,0,0,0,2.65,0V190.22a1.33,1.33,0,1,0-2.65,0Zm0-30.19a1.33,1.33,0,1,0,2.65,0v-4.49a1.33,1.33,0,0,0-2.65,0Zm0-11.9a1.33,1.33,0,0,0,2.65,0V148.12a1.33,1.33,0,0,0-2.65,0Zm-1.48-32.34h1.83v-1.22a.92.92,0,0,0-1.83,0Zm-3.64,0h1.83v-1.22a.92.92,0,0,0-1.83,0Z"/><path class="cls-1" d="M960.53,224.08h26.74v15.75h10.57v23.89h10.25V231.94h8.07V205.4h25.74v77.65h12.54v-59.5h4.75V188.33h21.26v51.5h5.74v-31h21.64v99.85h18.63V296.09h20.86V225.87H1169v14h5.74v-51.5H1196v35.22h4.74v59.5h12.54V205.4H1239v26.54h8.07v31.78h10.25V239.83h10.57V224.08h23.55v55.09h11.66V252.42h15.83V197.13h27.34v102h13.53V239.05h22.45v8H1387v17.21h8V253h30.62v21.57h5.71V233.77h30.62v21.57H1473v52.12h10.81V213h5.84V196.88l10.25-10.25h15v47.14h11.67v31h19v-8.3h4.83v31.73h6.2v20.55h6.25v-23h5.85V271.59h5.49v4.15h3.56v8.91h16.18V306.5h29.58v2.23h19.73v-9.67h23.18v9.67h33.21V296.92h13.49V263h32V281h5.83v-8.16H1766V235.15h5.86v-7.84h23.19v7.84h11.75V280h9.27V267h12.19V231.57h13.49V197.63h32v18.05h8.1v14.16h12.83v-60h26.37V362H960.53V224.08Zm953,8.93h3.08v-5.2h-3.08Zm0-10h3.08v-5.19h-3.08Zm-14.94-31.8h3.09V186h-3.09Zm0-10h3.09V176h-3.09Zm-29.62,87H1872v-5.19H1869Zm-7.2-20.05h3.09v-5.2h-3.09Zm0-10h3.09v-5.19h-3.09Zm-7.2-30.08h3.09v-5.2h-3.09ZM1847.37,228h3.08V222.8h-3.08Zm0-10h3.08v-5.19h-3.08Zm0-10h3.08v-5.2h-3.08Zm-8.23,57h1.34V236.34h-1.34Zm-3.75,0h1.34V236.34h-1.34Zm-3.75,0H1833V236.34h-1.34Zm-55.06-32.08h11.79V231.1h-11.79Zm-6.66,23.69h2v-5.19h-2Zm0-10h2v-5.19h-2Zm-36.82,62.23h3.08v-.53h-3.08Zm0-5.36h3.08v-5.2h-3.08Zm-7.2-30.09H1729v-5.19h-3.08Zm-7.2,20.06h3.08v-5.19h-3.08Zm0-10h3.08v-5.19h-3.08Zm0-10h3.08v-5.19h-3.08Zm-8.23,35.45h1.35v-7h-1.35Zm-3.75,0h1.35v-7h-1.35Zm-3.75,0h1.35v-7H1703Zm-55,0h11.79v-.84h-11.79Zm0-4.14h11.79v-1.74h-11.79Zm-81.57,2h10.89V305h-10.89Zm0-4.26h10.89v-1.58h-10.89Zm0-4.26h10.89v-1.58h-10.89Zm0-4.26h10.89v-1.59h-10.89Zm-53-25.2h3.08v-5.19h-3.08ZM1507.43,206h3.09v-5.19h-3.09Zm0-10h3.09V190.8h-3.09Zm-19.3,65.12h3.08v-5.19h-3.08Zm-.8-23h10.89v-1.58h-10.89Zm0-4.26h10.89V232.3h-10.89Zm0-4.26h10.89V228h-10.89Zm0-4.27h10.89v-1.58h-10.89Zm0-4.26h10.89v-1.58h-10.89Zm-22.47,85h3.08V300.9h-3.08Zm0-10h3.08v-5.19h-3.08Zm0-20.05h3.08v-5.19h-3.08Zm-9.07,30.08h3.09V300.9h-3.09Zm0-10h3.09v-5.19h-3.09Zm0-50.13h3.09v-5.2h-3.09Zm-7.2,30.08h3.09v-5.19h-3.09Zm0-20.06h3.09v-5.19h-3.09Zm0-10h3.09v-5.2h-3.09Zm-20.06,49.35h2.79v-5.19h-2.79Zm-9.07-30.08h3.09V260h-3.09Zm-7.2,30.08h3.09v-5.19h-3.09Zm0-20.06h3.09V270h-3.09Zm0-10h3.09V260h-3.09Zm-33.66,37.06h3.09v-5.2h-3.09Zm0-10h3.09V287h-3.09Zm-14.93-31.8h3.08v-5.19h-3.08Zm0-10h3.08v-5.19h-3.08Zm-36,14.51h2.07v-3.49h-2.07Zm0-6.73h2.07v-3.49h-2.07Zm-6.18-48h2.06v-3.48h-2.06Zm0-6.73h2.06V200h-2.06Zm-10.66,70.28h.9V254.61h-.9Zm-2.52,0h.9V254.61h-.9Zm-2.51,0h.9V254.61h-.9Zm-19.21-3h2.07v-3.48h-2.07Zm0-6.73h2.07v-3.48h-2.07Zm0-6.73h2.07v-3.48h-2.07Zm0-6.72h2.07v-3.49h-2.07Zm0-6.73h2.07v-3.49h-2.07Zm0-6.73h2.07v-3.48h-2.07Zm0-6.73h2.07v-3.48h-2.07Zm-4.83,40.37h2.07v-3.48h-2.07Zm0-6.73h2.07v-3.48h-2.07Zm0-6.73h2.07v-3.48h-2.07Zm0-6.72h2.07v-3.49h-2.07Zm0-6.73h2.07v-3.49h-2.07Zm0-6.73h2.07v-3.48h-2.07Zm0-6.73h2.07v-3.48h-2.07Zm-22.47,41.38h7.3v-1.06h-7.3Zm0-2.86h7.3v-1.06h-7.3Zm0-2.86h7.3V265h-7.3Zm0-2.86h7.3v-1.06h-7.3Zm0-2.86h7.3v-1.06h-7.3Zm0-2.86h7.3v-1.06h-7.3Zm0-2.86h7.3v-1.06h-7.3Zm0-2.86h7.3v-1.06h-7.3Zm0-2.86h7.3v-1.06h-7.3Zm0-2.86h7.3V245h-7.3Zm0-2.86h7.3v-1.06h-7.3Zm-17.92,28.51h2.07v-3.49h-2.07Zm0-6.73h2.07v-3.49h-2.07Zm-11.59-40.54h2.07v-3.49h-2.07Zm0-6.73h2.07V214.2h-2.07Zm0-6.73h2.07v-3.48h-2.07Zm-4.83,0h2.07v-3.48H1225Zm-4.83,26.91h2.07v-3.48h-2.07Zm0-6.72h2.07v-3.49h-2.07ZM1215.32,274h2.07v-3.49h-2.07Zm0-6.73h2.07V263.8h-2.07Zm0-16h2.07v-3.48h-2.07Zm0-33.64h2.07V214.2h-2.07Zm0-6.73h2.07v-3.48h-2.07Zm-19.21,53.42h2.06v-3.48h-2.06Zm0-6.72h2.06v-3.49h-2.06Zm-4.7-43.2h2.07V211h-2.07Zm0-13.46h2.07v-3.48h-2.07Zm0-6.73h2.07v-3.48h-2.07Zm-4.83,40.37h2.07v-3.48h-2.07Zm0-6.73h2.07v-3.48h-2.07Zm0-33.64h2.07v-3.48h-2.07Zm-9.66,40.37H1179v-3.48h-2.07Zm0-6.73H1179v-3.48h-2.07Zm0-13.45H1179V211h-2.07Zm0-13.46H1179v-3.48h-2.07Zm0-6.73H1179v-3.48h-2.07Zm-12.35,56.8h7.91v-1.17h-7.91Zm0-3.38h7.91v-1.17h-7.91Zm0-3.38h7.91v-1.17h-7.91Zm-81.9,6.76h7.91v-1.17h-7.91Zm0-3.38h7.91v-1.17h-7.91Zm0-3.38h7.91v-1.17h-7.91Zm-6.51-9.67h2.07v-3.48h-2.07Zm0-6.73h2.07v-3.48h-2.07Zm0-13.45h2.07V211h-2.07Zm0-13.46h2.07v-3.48h-2.07Zm0-6.73h2.07v-3.48h-2.07Zm-9.66,40.37h2.07v-3.48h-2.07Zm0-6.73h2.07v-3.48h-2.07Zm0-33.64h2.07v-3.48h-2.07Zm-4.83,20.19h2.07V211h-2.07Zm0-13.46h2.07v-3.48h-2.07Zm0-6.73h2.07v-3.48h-2.07Zm-4.7,70.11H1059v-3.48H1057Zm0-6.72H1059v-3.49H1057ZM1037.76,274h2.07v-3.49h-2.07Zm0-6.73h2.07V263.8h-2.07Zm0-16h2.07v-3.48h-2.07Zm0-33.64h2.07V214.2h-2.07Zm0-6.73h2.07v-3.48h-2.07Zm-4.83,26.91H1035v-3.48h-2.07Zm0-6.72H1035v-3.49h-2.07ZM1028.1,211h2.06v-3.48h-2.06Zm-4.83,13.46h2.06v-3.49h-2.06Zm0-6.73h2.06V214.2h-2.06Zm0-6.73h2.06v-3.48h-2.06Zm-11.59,60.73h2.07v-3.49h-2.07Zm0-6.73h2.07v-3.49h-2.07Zm-23.16,6.82h7.31v-1.06h-7.31Zm0-2.86h7.31v-1.06h-7.31Zm0-2.86h7.31V265h-7.31Zm0-2.86h7.31v-1.06h-7.31Zm0-2.86h7.31v-1.06h-7.31Zm0-2.86h7.31v-1.06h-7.31Zm0-2.86h7.31v-1.06h-7.31Zm0-2.86h7.31v-1.06h-7.31Zm0-2.86h7.31v-1.06h-7.31Zm0-2.86h7.31V245h-7.31Zm0-2.86h7.31v-1.06h-7.31Zm-17.23,27.59h2.07v-3.48h-2.07Zm0-6.73h2.07v-3.48h-2.07Zm0-6.73h2.07v-3.48h-2.07Zm0-6.72h2.07v-3.49h-2.07Zm0-6.73h2.07v-3.49h-2.07Zm0-6.73h2.07v-3.48h-2.07Zm0-6.73h2.07v-3.48h-2.07Zm-4.83,40.37h2.07v-3.48h-2.07Zm0-6.73h2.07v-3.48h-2.07Zm0-6.73h2.07v-3.48h-2.07Zm0-6.72h2.07v-3.49h-2.07Zm0-6.73h2.07v-3.49h-2.07Zm0-6.73h2.07v-3.48h-2.07Zm0-6.73h2.07v-3.48h-2.07Z"/><path class="cls-1" d="M0,224.08H26.74v15.75H37.31v23.89H47.56V231.94h8.07V205.4H81.37v77.65H93.91v-59.5h4.74V188.33h21.27v51.5h5.74v-31h21.63v99.85h18.63V296.09h20.87V225.87h21.63v14h5.74v-51.5h21.27v35.22h4.74v59.5h12.54V205.4h25.74v26.54h8.07v31.78h10.25V239.83h10.57V224.08h23.54v55.09h11.67V252.42h15.83V197.13h27.34v102h13.53V239.05h22.44v8h4.75v17.21h8V253h30.62v21.57h5.71V233.77h30.62v21.57h11.07v52.12h10.81V213h5.84V196.88l10.26-10.25h15v47.14H566v31h19v-8.3h4.82v31.73h6.2v20.55h6.26v-23h5.84V271.59h5.49v4.15h3.56v8.91h16.18V306.5H663v2.23h19.72v-9.67h23.18v9.67h33.22V296.92h13.49V263h32V281h5.83v-8.16h15.1V235.15h5.87v-7.84h23.18v7.84h11.75V280h9.28V267h12.18V231.57h13.5V197.63h32v18.05h8.11v14.16h12.82v-60h26.37V362H0V224.08ZM953,233h3.09v-5.2H953Zm0-10h3.09v-5.19H953Zm-14.93-31.8h3.08V186h-3.08Zm0-10h3.08V176h-3.08Zm-29.62,87h3.08v-5.19h-3.08Zm-7.2-20.05h3.08v-5.2h-3.08Zm0-10h3.08v-5.19h-3.08ZM894,207.94h3.08v-5.2H894ZM886.83,228h3.08V222.8h-3.08Zm0-10h3.08v-5.19h-3.08Zm0-10h3.08v-5.2h-3.08Zm-8.22,57H880V236.34h-1.34Zm-3.75,0h1.34V236.34h-1.34Zm-3.75,0h1.34V236.34h-1.34Zm-55.06-32.08h11.79V231.1H816.05Zm-6.67,23.69h2v-5.19h-2Zm0-10h2v-5.19h-2Zm-36.82,62.23h3.08v-.53h-3.08Zm0-5.36h3.08v-5.2h-3.08Zm-7.2-30.09h3.08v-5.19h-3.08Zm-7.2,20.06h3.09v-5.19h-3.09Zm0-10h3.09v-5.19h-3.09Zm0-10h3.09v-5.19h-3.09Zm-8.22,35.45h1.34v-7h-1.34Zm-3.75,0h1.34v-7h-1.34Zm-3.75,0h1.34v-7h-1.34Zm-55.06,0h11.79v-.84H687.38Zm0-4.14h11.79v-1.74H687.38Zm-81.57,2h10.9V305h-10.9Zm0-4.26h10.9v-1.58h-10.9Zm0-4.26h10.9v-1.58h-10.9Zm0-4.26h10.9v-1.59h-10.9Zm-53-25.2h3.09v-5.19h-3.09ZM546.9,206H550v-5.19H546.9Zm0-10H550V190.8H546.9Zm-19.31,65.12h3.09v-5.19h-3.09Zm-.79-23h10.89v-1.58H526.8Zm0-4.26h10.89V232.3H526.8Zm0-4.26h10.89V228H526.8Zm0-4.27h10.89v-1.58H526.8Zm0-4.26h10.89v-1.58H526.8Zm-22.47,85h3.08V300.9h-3.08Zm0-10h3.08v-5.19h-3.08Zm0-20.05h3.08v-5.19h-3.08Zm-9.07,30.08h3.08V300.9h-3.08Zm0-10h3.08v-5.19h-3.08Zm0-50.13h3.08v-5.2h-3.08ZM488.06,276h3.08v-5.19h-3.08Zm0-20.06h3.08v-5.19h-3.08Zm0-10h3.08v-5.2h-3.08ZM468,295.28h2.8v-5.19H468Zm-9.06-30.08H462V260h-3.08Zm-7.2,30.08h3.08v-5.19h-3.08Zm0-20.06h3.08V270h-3.08Zm0-10h3.08V260h-3.08Zm-33.66,37.06h3.08v-5.2h-3.08Zm0-10h3.08V287h-3.08Zm-14.93-31.8h3.08v-5.19h-3.08Zm0-10h3.08v-5.19h-3.08Zm-36,14.51h2.06v-3.49h-2.06Zm0-6.73h2.06v-3.49h-2.06Zm-6.19-48h2.07v-3.48H361Zm0-6.73h2.07V200H361Zm-10.66,70.28h.9V254.61h-.9Zm-2.51,0h.9V254.61h-.9Zm-2.52,0h.9V254.61h-.9Zm-19.2-3h2.06v-3.48h-2.06Zm0-6.73h2.06v-3.48h-2.06Zm0-6.73h2.06v-3.48h-2.06Zm0-6.72h2.06v-3.49h-2.06Zm0-6.73h2.06v-3.49h-2.06Zm0-6.73h2.06v-3.48h-2.06Zm0-6.73h2.06v-3.48h-2.06Zm-4.83,40.37h2.06v-3.48h-2.06Zm0-6.73h2.06v-3.48h-2.06Zm0-6.73h2.06v-3.48h-2.06Zm0-6.72h2.06v-3.49h-2.06Zm0-6.73h2.06v-3.49h-2.06Zm0-6.73h2.06v-3.48h-2.06Zm0-6.73h2.06v-3.48h-2.06Zm-22.48,41.38h7.31v-1.06h-7.31Zm0-2.86h7.31v-1.06h-7.31Zm0-2.86h7.31V265h-7.31Zm0-2.86h7.31v-1.06h-7.31Zm0-2.86h7.31v-1.06h-7.31Zm0-2.86h7.31v-1.06h-7.31Zm0-2.86h7.31v-1.06h-7.31Zm0-2.86h7.31v-1.06h-7.31Zm0-2.86h7.31v-1.06h-7.31Zm0-2.86h7.31V245h-7.31Zm0-2.86h7.31v-1.06h-7.31Zm-17.92,28.51h2.07v-3.49h-2.07Zm0-6.73h2.07v-3.49h-2.07Zm-11.58-40.54h2.07v-3.49h-2.07Zm0-6.73h2.07V214.2h-2.07Zm0-6.73h2.07v-3.48h-2.07Zm-4.83,0h2.07v-3.48h-2.07Zm-4.83,26.91h2.07v-3.48h-2.07Zm0-6.72h2.07v-3.49h-2.07ZM254.79,274h2.06v-3.49h-2.06Zm0-6.73h2.06V263.8h-2.06Zm0-16h2.06v-3.48h-2.06Zm0-33.64h2.06V214.2h-2.06Zm0-6.73h2.06v-3.48h-2.06Zm-19.22,53.42h2.07v-3.48h-2.07Zm0-6.72h2.07v-3.49h-2.07Zm-4.69-43.2h2.06V211h-2.06Zm0-13.46h2.06v-3.48h-2.06Zm0-6.73h2.06v-3.48h-2.06ZM226,234.63h2.07v-3.48H226Zm0-6.73h2.07v-3.48H226Zm0-33.64h2.07v-3.48H226Zm-9.66,40.37h2.07v-3.48h-2.07Zm0-6.73h2.07v-3.48h-2.07Zm0-13.45h2.07V211h-2.07Zm0-13.46h2.07v-3.48h-2.07Zm0-6.73h2.07v-3.48h-2.07ZM204,251.06H212v-1.17H204Zm0-3.38H212v-1.17H204Zm0-3.38H212v-1.17H204Zm-81.91,6.76H130v-1.17h-7.91Zm0-3.38H130v-1.17h-7.91Zm0-3.38H130v-1.17h-7.91Zm-6.5-9.67h2.06v-3.48h-2.06Zm0-6.73h2.06v-3.48h-2.06Zm0-13.45h2.06V211h-2.06Zm0-13.46h2.06v-3.48h-2.06Zm0-6.73h2.06v-3.48h-2.06ZM106,234.63H108v-3.48H106Zm0-6.73H108v-3.48H106Zm0-33.64H108v-3.48H106Zm-4.83,20.19h2.07V211h-2.07Zm0-13.46h2.07v-3.48h-2.07Zm0-6.73h2.07v-3.48h-2.07Zm-4.69,70.11h2.07v-3.48H96.44Zm0-6.72h2.07v-3.49H96.44ZM77.22,274h2.07v-3.49H77.22Zm0-6.73h2.07V263.8H77.22Zm0-16h2.07v-3.48H77.22Zm0-33.64h2.07V214.2H77.22Zm0-6.73h2.07v-3.48H77.22Zm-4.83,26.91h2.07v-3.48H72.39Zm0-6.72h2.07v-3.49H72.39ZM67.56,211h2.07v-3.48H67.56Zm-4.83,13.46H64.8v-3.49H62.73Zm0-6.73H64.8V214.2H62.73Zm0-6.73H64.8v-3.48H62.73ZM51.15,271.68h2.06v-3.49H51.15Zm0-6.73h2.06v-3.49H51.15ZM28,271.77H35.3v-1.06H28Zm0-2.86H35.3v-1.06H28Zm0-2.86H35.3V265H28Zm0-2.86H35.3v-1.06H28Zm0-2.86H35.3v-1.06H28Zm0-2.86H35.3v-1.06H28Zm0-2.86H35.3v-1.06H28Zm0-2.86H35.3v-1.06H28Zm0-2.86H35.3v-1.06H28ZM28,246H35.3V245H28Zm0-2.86H35.3v-1.06H28ZM10.75,270.76h2.07v-3.48H10.75Zm0-6.73h2.07v-3.48H10.75Zm0-6.73h2.07v-3.48H10.75Zm0-6.72h2.07v-3.49H10.75Zm0-6.73h2.07v-3.49H10.75Zm0-6.73h2.07v-3.48H10.75Zm0-6.73h2.07v-3.48H10.75ZM5.92,270.76H8v-3.48H5.92Zm0-6.73H8v-3.48H5.92Zm0-6.73H8v-3.48H5.92Zm0-6.72H8v-3.49H5.92Zm0-6.73H8v-3.49H5.92Zm0-6.73H8v-3.48H5.92Zm0-6.73H8v-3.48H5.92Z"/><path class="cls-1" d="M1088.21,123.88c.61-.27,6-2.59,8.3-2.59h1.93l-.39-1.92h-1.27a1,1,0,0,1-.38-2l18.9-7.57a.33.33,0,0,0,.21-.31.33.33,0,0,0-.17-.3l-3.78-2.11a1,1,0,0,1,.26-1.88l2.93-.67.85-1.91a1,1,0,0,1,.93-.6h5l.47-1.87a1,1,0,0,1,1-.77h1v-16a1,1,0,0,1,2,0v16h1a1,1,0,0,1,1,.77l.47,1.87h5a1,1,0,0,1,.93.6l.85,1.91,2.93.67a1,1,0,0,1,.78.85,1.05,1.05,0,0,1-.51,1l-3.79,2.11a.35.35,0,0,0-.17.3.33.33,0,0,0,.21.31l18.9,7.57a1,1,0,0,1-.37,2h-1.28l-.38,1.92h1.92c2.25,0,7.69,2.32,8.3,2.59a1,1,0,0,1,.61,1,1,1,0,0,1-.66.92,33.38,33.38,0,0,1-7.81,1.84l-1.38,3.63,3.18,1.34a1,1,0,0,1,0,1.88,49.14,49.14,0,0,1-14.64,2.68c-1.24,7.43-10.38,62.28-10.38,68.3v32.2c0,10,12.39,90.68,9.09,71.61h-29.43c-3.3,19.07,9.09-61.57,9.09-71.61v-32.2c0-6-9.13-60.87-10.38-68.3a49.14,49.14,0,0,1-14.64-2.68,1,1,0,0,1-.65-.93,1,1,0,0,1,.62-1l3.17-1.34-1.38-3.63a33.38,33.38,0,0,1-7.81-1.84,1,1,0,0,1,0-1.88Zm42.37,183.33h8.74c-3.13-18.08-6.61-38.72-8.74-53Zm3.26-178a.94.94,0,0,0-1.87,0v.93h1.87Zm2.64-9.66a.93.93,0,0,0-1.86,0v.93h1.86Zm8.74.93h1.86v-.93a.93.93,0,1,0-1.86,0Zm-2.65,9.66h1.86v-.93a.93.93,0,0,0-1.86,0Zm-2.65-9.66h1.86v-.93a.93.93,0,0,0-1.86,0Zm-.79,8.73a.93.93,0,0,0-1.86,0v.93h1.86Zm-8.55,60c2.71-18.32,7.29-45.82,8.32-52h-8.32Zm-1.26-68.68h1.87v-.93a.94.94,0,0,0-1.87,0Zm-2.65,9.66h1.87v-.93a.94.94,0,0,0-1.87,0Zm-2.64-9.66h1.86v-.93a.93.93,0,0,0-1.86,0Zm-8.74-.93a.93.93,0,0,0-1.86,0v.93h1.86Zm2.65,9.66a.93.93,0,0,0-1.86,0v.93h1.86Zm3.44.93h1.86v-.93a.93.93,0,0,0-1.86,0Zm-10.79,177.08h8.74v-11.5h-6.76C1111.91,299.6,1111.24,303.46,1110.59,307.21Zm2.32-13.52h6.42v-11.5h-4.48C1114.22,286,1113.57,289.84,1112.91,293.69Zm2.28-13.53h4.14V254.24C1118.23,261.59,1116.77,270.64,1115.19,280.16Zm5.4-159.69v-.93a.93.93,0,0,0-1.86,0v.93Zm-1.26,68.68v-52H1111C1112,143.33,1116.63,170.83,1119.33,189.15Zm-8.55-59h1.86v-.93a.93.93,0,0,0-1.86,0Zm-2.65-9.66H1110v-.93a.93.93,0,0,0-1.86,0Zm-2.65,9.66h1.86v-.93a.93.93,0,0,0-1.86,0Zm-2.65-9.66h1.86v-.93a.93.93,0,0,0-1.86,0Z"/></g></g></g></g></svg>