<svg xmlns="http://www.w3.org/2000/svg" viewBox="0 0 1980.44 554.74"><defs><style>.cls-1{fill:#fff;}</style></defs><title>clouds</title><g id="Layer_2" data-name="Layer 2"><g id="Home_Page" data-name="Home Page"><g id="objects"><g id="clouds"><path class="cls-1" d="M1879.76,22.48A19,19,0,0,1,1913.47,14a18.39,18.39,0,0,1,2.46-.74,19,19,0,0,1,35.31-2.37,19.62,19.62,0,0,1,2.31-.15,19,19,0,0,1,18.7,15.67,19,19,0,1,1-22.08,30.91,19,19,0,0,1-22.13.75,19,19,0,0,1-29.54-1.92,19,19,0,0,1-4.93-1.4,19,19,0,1,1-13.81-32.29Z"/><path class="cls-1" d="M1767.94,338.67a19,19,0,0,1,33.7-8.46,19,19,0,0,1,2.47-.74,19,19,0,0,1,35.31-2.37,19.62,19.62,0,0,1,2.31-.14,19,19,0,0,1,18.7,15.67,19,19,0,1,1-22.08,30.91,19,19,0,0,1-22.14.75,19,19,0,0,1-29.53-1.93,18.62,18.62,0,0,1-4.93-1.4,19,19,0,1,1-13.81-32.29Z"/><path class="cls-1" d="M109.47,136.27a12.05,12.05,0,0,1,21.38-5.37,13.4,13.4,0,0,1,1.56-.47,12.05,12.05,0,0,1,22.4-1.5,11.84,11.84,0,0,1,1.47-.09,12.05,12.05,0,0,1,11.86,9.94,12.05,12.05,0,1,1-14,19.61,12,12,0,0,1-14,.47,12,12,0,0,1-18.73-1.22,11.74,11.74,0,0,1-3.13-.89,12,12,0,1,1-8.76-20.48Z"/><path class="cls-1" d="M295.66,337.1a12.05,12.05,0,0,1-21.38,5.37,12.84,12.84,0,0,1-1.56.47,12.05,12.05,0,0,1-22.4,1.5,11.8,11.8,0,0,1-1.46.09A12.05,12.05,0,0,1,237,334.59,12.05,12.05,0,1,1,251,315a12,12,0,0,1,14-.47,12.06,12.06,0,0,1,18.74,1.22,11.77,11.77,0,0,1,3.12.89,12.05,12.05,0,1,1,8.76,20.48Z"/><path class="cls-1" d="M1155.51,21a12,12,0,0,0-21.38-5.36,11.85,11.85,0,0,0-1.57-.47,12.05,12.05,0,0,0-22.4-1.51,14,14,0,0,0-1.46-.09,12.05,12.05,0,0,0-11.86,9.94,12,12,0,1,0,14,19.61,12,12,0,0,0,14,.47,12,12,0,0,0,18.74-1.22,11.83,11.83,0,0,0,3.13-.88A12.05,12.05,0,1,0,1155.51,21Z"/><path class="cls-1" d="M105,514.35a15.86,15.86,0,0,0-8.1.82,15.91,15.91,0,0,0-30.08-7.5,15.92,15.92,0,0,0-19.79,2.54,15.91,15.91,0,0,0-30,4.45,16.22,16.22,0,0,0-.18,2,15.91,15.91,0,0,0-3.42,31.6,15.73,15.73,0,0,0,8.43-1,15.9,15.9,0,0,0,24.68,2.85,15.9,15.9,0,0,0,20.86,1,15.93,15.93,0,0,0,8.89,1.25A16,16,0,0,0,97.6,545.2a16.38,16.38,0,0,0,2.44.59,15.92,15.92,0,0,0,5-31.44Z"/></g></g></g></g></svg>