<svg xmlns="http://www.w3.org/2000/svg" xmlns:xlink="http://www.w3.org/1999/xlink" viewBox="0 0 1991.49 1247.22"><defs><style>.cls-1,.cls-4,.cls-5{fill:none;}.cls-2{fill:#254262;}.cls-3{fill:#fff;}.cls-4,.cls-5{stroke-linecap:round;stroke-miterlimit:10;stroke-width:3px;stroke-dasharray:12;}.cls-4{stroke:url(#New_Pattern_Swatch_12);}.cls-5{stroke:url(#New_Pattern_Swatch_11);}</style><pattern id="New_Pattern_Swatch_12" data-name="New Pattern Swatch 12" width="164" height="164" patternTransform="translate(1.36 984)" patternUnits="userSpaceOnUse" viewBox="0 0 164 164"><rect class="cls-1" width="164" height="164"/><rect class="cls-3" width="164" height="164"/></pattern><pattern id="New_Pattern_Swatch_11" data-name="New Pattern Swatch 11" width="164" height="164" patternTransform="translate(1.36 984)" patternUnits="userSpaceOnUse" viewBox="0 0 164 164"><rect class="cls-1" width="164" height="164"/><rect class="cls-2" width="164" height="164"/></pattern></defs><title>dotted-ropes</title><g id="Layer_2" data-name="Layer 2"><g id="Home_Page" data-name="Home Page"><g id="objects"><g id="dotted_ropes" data-name="dotted ropes"><path id="dotted_rope" data-name="dotted rope" class="cls-4" d="M314,1.5c51.84,40.65,50.13,123.48,16.3,180s-90.76,94.37-142.68,134.92S84.49,406.48,71.4,471.05c-4,19.56-3.46,42,9.88,56.82s42.61,14.49,49.78-4.14c8.51-22.14-23.9-42.24-45.23-31.86s-29.9,36.23-32.75,59.78c-15.17,125.47,69.63,240.83,86.91,366,17,123.42-38.16,254.17-138.49,328.05"/><path id="dotted_rope-2" data-name="dotted rope" class="cls-5" d="M435.35,1231.42c7.81-98,82.45-181.27,171.11-223.77s189.68-50.66,288-51.24,197.45,5.65,294.39-10.78,194-58.89,252.59-137.89c34.39-46.42,54-103.18,92.66-146.09s109.55-67.25,153.57-29.84c30.61,26,36,72.27,26.39,111.26s-31.47,73.66-47.93,110.3-27.62,78.67-14.67,116.69c16.25,47.74,69,76.89,119.44,75.44s97.29-28.72,132.72-64.6,61.1-80,86.37-123.67"/></g></g></g></g></svg>