<svg xmlns="http://www.w3.org/2000/svg" xmlns:xlink="http://www.w3.org/1999/xlink" viewBox="0 0 2070.71 831.95"><defs><style>.cls-1,.cls-10,.cls-4,.cls-5,.cls-6,.cls-7,.cls-8,.cls-9{fill:none;}.cls-2{fill:#254262;}.cls-3{fill:#fff;}.cls-10,.cls-4,.cls-5,.cls-6,.cls-7,.cls-8,.cls-9{stroke-linecap:round;stroke-miterlimit:10;stroke-width:3px;}.cls-10,.cls-4,.cls-5,.cls-6,.cls-9{stroke:url(#New_Pattern_Swatch_12);}.cls-5{stroke-dasharray:6.89 6.89;}.cls-6,.cls-8{stroke-dasharray:11.45 11.45;}.cls-7,.cls-8{stroke:url(#New_Pattern_Swatch_11);}.cls-9{stroke-dasharray:11.45 11.45;}.cls-10{stroke-dasharray:11.45 11.45;}</style><pattern id="New_Pattern_Swatch_12" data-name="New Pattern Swatch 12" width="164" height="164" patternTransform="translate(1.36 984)" patternUnits="userSpaceOnUse" viewBox="0 0 164 164"><rect class="cls-1" width="164" height="164"/><rect class="cls-3" width="164" height="164"/></pattern><pattern id="New_Pattern_Swatch_11" data-name="New Pattern Swatch 11" width="164" height="164" patternTransform="translate(1.36 984)" patternUnits="userSpaceOnUse" viewBox="0 0 164 164"><rect class="cls-1" width="164" height="164"/><rect class="cls-2" width="164" height="164"/></pattern></defs><title>dotted-lines</title><g id="Layer_2" data-name="Layer 2"><g id="Home_Page" data-name="Home Page"><g id="objects"><g id="dotted_lines" data-name="dotted lines"><line class="cls-4" x1="923.92" y1="613.47" x2="927.64" y2="613.47"/><line class="cls-5" x1="934.53" y1="613.47" x2="1013.82" y2="613.47"/><line class="cls-4" x1="1017.27" y1="613.47" x2="1020.99" y2="613.47"/><line class="cls-4" x1="798.28" y1="1.5" x2="804.28" y2="1.5"/><line class="cls-6" x1="815.73" y1="1.5" x2="1038.93" y2="1.5"/><line class="cls-4" x1="1044.65" y1="1.5" x2="1050.65" y2="1.5"/><line class="cls-7" x1="1083.93" y1="830.45" x2="1089.93" y2="830.45"/><line class="cls-8" x1="1101.38" y1="830.45" x2="1324.57" y2="830.45"/><line class="cls-7" x1="1330.3" y1="830.45" x2="1336.3" y2="830.45"/><line class="cls-4" x1="1816.84" y1="245.7" x2="1822.84" y2="245.7"/><line class="cls-9" x1="1834.29" y1="245.7" x2="2057.49" y2="245.7"/><line class="cls-4" x1="2063.21" y1="245.7" x2="2069.21" y2="245.7"/><line class="cls-4" x1="1275.66" y1="374.58" x2="1281.66" y2="374.58"/><line class="cls-10" x1="1293.1" y1="374.58" x2="1516.3" y2="374.58"/><line class="cls-4" x1="1522.02" y1="374.58" x2="1528.02" y2="374.58"/><line class="cls-4" x1="1.5" y1="442.99" x2="7.5" y2="442.99"/><line class="cls-9" x1="18.95" y1="442.99" x2="242.14" y2="442.99"/><line class="cls-4" x1="247.87" y1="442.99" x2="253.87" y2="442.99"/></g></g></g></g></svg>