<svg xmlns="http://www.w3.org/2000/svg" viewBox="0 0 1729.97 284.01"><defs><style>.cls-1{fill:#fff;}</style></defs><title>flying-balloons</title><g id="Layer_2" data-name="Layer 2"><g id="Home_Page" data-name="Home Page"><g id="objects"><g id="flying_balloon" data-name="flying balloon"><path class="cls-1" d="M523.92,251.5a13,13,0,1,0-22,9.35l3.37,14.34h-2.31l1,7A2.11,2.11,0,0,0,506,284h9a2.11,2.11,0,0,0,2.1-1.82l1-7H516l3.2-13.64A13,13,0,0,0,523.92,251.5Zm-9,23.69h-8.56L503.22,262a12.95,12.95,0,0,0,14.65.5Z"/><path class="cls-1" d="M1730,13a13,13,0,1,0-22,9.34l3.37,14.34H1709l1,7a2.13,2.13,0,0,0,2.1,1.82h9a2.11,2.11,0,0,0,2.09-1.82l1-7H1722l3.21-13.63A13,13,0,0,0,1730,13Zm-9,23.68h-8.56l-3.11-13.21a13,13,0,0,0,14.66.5Z"/><path class="cls-1" d="M26,203.08a13,13,0,1,0-22,9.35l3.37,14.34H5l1,7a2.1,2.1,0,0,0,2.09,1.82h9a2.1,2.1,0,0,0,2.09-1.82l1-7H18.05l3.21-13.64A13,13,0,0,0,26,203.08Zm-9,23.69H8.42L5.31,213.55a13,13,0,0,0,14.66.5Z"/><path class="cls-1" d="M946.91,149.53a13,13,0,1,0-22,9.35l3.37,14.34h-2.31l1,7A2.11,2.11,0,0,0,929,182h9a2.11,2.11,0,0,0,2.1-1.82l1-7H939l3.2-13.64A13,13,0,0,0,946.91,149.53Zm-9,23.69h-8.55L926.21,160a12.95,12.95,0,0,0,14.65.5Z"/></g></g></g></g></svg>