<svg xmlns="http://www.w3.org/2000/svg" xmlns:xlink="http://www.w3.org/1999/xlink" viewBox="0 0 378.05 91.89"><defs><style>.cls-1{fill:none;}.cls-2{fill:#fff;}.cls-3{fill:url(#New_Pattern_Swatch_12);}.cls-4{clip-path:url(#clip-path);}.cls-5{opacity:0.26;}.cls-6{fill:#c05871;}</style><pattern id="New_Pattern_Swatch_12" data-name="New Pattern Swatch 12" width="164" height="164" patternTransform="translate(-11 966.81)" patternUnits="userSpaceOnUse" viewBox="0 0 164 164"><rect class="cls-1" width="164" height="164"/><rect class="cls-2" width="164" height="164"/></pattern><clipPath id="clip-path"><path class="cls-1" d="M78.53,0H22.1a9.79,9.79,0,0,0-9.79,9.79V50.35c0,9.08,11.17,13.49,17.55,7L52.42,34.52l-15.1-9.3,3.8-3.81,18.13,6,7.33-7.64a3.58,3.58,0,0,1,4.53-.61,3.51,3.51,0,0,1,.51,5.46L63.88,32l6,18.13L66.07,54l-9.3-15.11-19,19.73c-10.64,11-3,29.57,12.36,29.71h.34A38.16,38.16,0,0,0,88.63,50.14v-40A10.1,10.1,0,0,0,78.53,0Z"/></clipPath></defs><title>logo-with-text</title><g id="Layer_2" data-name="Layer 2"><g id="Home_Page" data-name="Home Page"><g id="texts"><g id="Home_page-2" data-name="Home page"><g id="logo"><path class="cls-3" d="M120.59,39.83V37.12l2-.43v-13l-2-.43V20.56h6.71L135,32.89h.08V23.71l-2.53-.43V20.56h8.64v2.72l-2,.43V39.83h-4.58l-7.88-12.07h-.08v8.93l2.54.43v2.71Z"/><path class="cls-3" d="M144,39.83V37.12l2-.43v-13l-2-.43V20.56h8.47v2.72l-1.83.43v13l1.83.43v2.71Zm5.44-4.2L147,32.92l9.61-9.46v0l-2.18-.15V20.56h9v2.72l-1.81.39Zm5.48,4.2V37.12l1.93-.15h0l-4.63-6.34,3.24-2.87,6.75,9,2,.33v2.71Z"/><path class="cls-3" d="M166.81,39.83V37.12l2-.43v-13l-2-.43V20.54h9.48a10,10,0,0,1,4,.73,6,6,0,0,1,2.6,2.07,5.54,5.54,0,0,1,.91,3.19,5.81,5.81,0,0,1-.92,3.15A6.67,6.67,0,0,1,180.33,32a7.34,7.34,0,0,1-3.66.87l-3.21,0v3.85l2,.43v2.71Zm6.65-10.55h2.88a3.08,3.08,0,0,0,2.08-.63,2.25,2.25,0,0,0,.73-1.82,2.71,2.71,0,0,0-.74-2,2.86,2.86,0,0,0-2.12-.75h-2.83ZM179,39.83l-2.6-7.52,4-1.38,2.34,5.74,1.83.46v2.7Z"/><path class="cls-3" d="M196.19,39.83V37.12l2-.43v-13l-2-.43V20.56h9.09l4.66,12.69H210l4.53-12.69h9v2.72l-2,.43v13l2,.43v2.71h-8.63V37.12l2.07-.43V34.18l.11-9.07H217l-5.45,14.73H207.9l-5.53-14.56h-.09l.32,8.26v3.15l2.23.43v2.71Z"/><path class="cls-3" d="M226.44,39.83V37.12l1.68-.43v-8l-2-.43V25.51h6.64V36.69l1.67.43v2.71Zm1.55-17V19.18h4.78v3.61Z"/><path class="cls-3" d="M243.78,45.61a14.14,14.14,0,0,1-2.57-.27,10.67,10.67,0,0,1-2.54-.81l.74-3.2a13.74,13.74,0,0,0,2.11.63,10.13,10.13,0,0,0,1.94.21,2.63,2.63,0,0,0,2.1-.78,3.28,3.28,0,0,0,.67-2.16v-.67a4.19,4.19,0,0,1-1.39,1.14,3.85,3.85,0,0,1-1.8.41,5,5,0,0,1-3-.89,5.48,5.48,0,0,1-1.9-2.49,9.9,9.9,0,0,1-.66-3.76V32.7a10.88,10.88,0,0,1,.65-3.92,5.84,5.84,0,0,1,1.86-2.6,4.56,4.56,0,0,1,2.89-.94,3.87,3.87,0,0,1,2.12.55,4.84,4.84,0,0,1,1.5,1.52l.29-1.8h4.09V39.26A6.32,6.32,0,0,1,250,42.6a5.9,5.9,0,0,1-2.46,2.22A8.36,8.36,0,0,1,243.78,45.61Zm.62-9.06a3,3,0,0,0,1.06-.19,1.81,1.81,0,0,0,.77-.59v-6a1.9,1.9,0,0,0-.77-.72,2.33,2.33,0,0,0-1.06-.25,1.85,1.85,0,0,0-1.33.49,2.72,2.72,0,0,0-.71,1.35,8.39,8.39,0,0,0-.22,2.06V33a5.72,5.72,0,0,0,.49,2.64A1.8,1.8,0,0,0,244.4,36.55Zm5.94-7.84-2.09-3.2h4.27v2.74Z"/><path class="cls-3" d="M256.16,39.83V37.12l1.67-.43v-8l-2-.43V25.51h6.36l.11,1.75,0,.35a4.17,4.17,0,0,1,1.18-1.79,2.68,2.68,0,0,1,1.77-.58,6.56,6.56,0,0,1,.69.05,4.77,4.77,0,0,1,.8.17l-.46,4.26-2-.1a2.46,2.46,0,0,0-1.07.16,2.43,2.43,0,0,0-.79.59v6.32l1.67.43v2.71Z"/><path class="cls-3" d="M274.17,40.11a4.84,4.84,0,0,1-3.38-1.18,4.32,4.32,0,0,1-.59-5.51,4.73,4.73,0,0,1,2.17-1.62,9.71,9.71,0,0,1,3.63-.59h1.5v-.84A2.29,2.29,0,0,0,277,28.9a1.9,1.9,0,0,0-1.55-.6,3.22,3.22,0,0,0-.84.11,2.72,2.72,0,0,0-.71.33l-.32,1.82h-3.27l-.06-4a20.73,20.73,0,0,1,2.54-.94,10.58,10.58,0,0,1,3-.4,7.32,7.32,0,0,1,4.64,1.35,4.56,4.56,0,0,1,1.72,3.83V35.7c0,.2,0,.4,0,.6a2.44,2.44,0,0,0,.06.55l1.55.27v2.71h-5.43a4.78,4.78,0,0,1-.37-.64,3.39,3.39,0,0,1-.28-.79,5,5,0,0,1-1.45,1.26A4.22,4.22,0,0,1,274.17,40.11Zm1.43-3.28a2.66,2.66,0,0,0,1-.21,2.45,2.45,0,0,0,.88-.61V33.94h-1.45a2.3,2.3,0,0,0-1.45.41,1.33,1.33,0,0,0-.51,1.09,1.31,1.31,0,0,0,.43,1A1.61,1.61,0,0,0,275.6,36.83Z"/><path class="cls-3" d="M292,40.14a4.56,4.56,0,0,1-3.42-1.2,5.29,5.29,0,0,1-1.17-3.8V28.71h-1.79v-3.2h1.79V22H292v3.54h2.34v3.2H292v6.42a1.22,1.22,0,0,0,.32,1,1.25,1.25,0,0,0,.87.28,3.87,3.87,0,0,0,.48,0c.16,0,.31,0,.47-.06l.32,3.46a10.73,10.73,0,0,1-1.22.28A8.82,8.82,0,0,1,292,40.14Z"/><path class="cls-3" d="M298.19,39.83V37.12l1.68-.43v-8l-2-.43V25.51h6.65V36.69l1.66.43v2.71Zm1.55-17V19.18h4.78v3.61Z"/><path class="cls-3" d="M316.24,40.11a7.38,7.38,0,0,1-3.78-.92,6.08,6.08,0,0,1-2.4-2.57,8.42,8.42,0,0,1-.82-3.82v-.26a8.35,8.35,0,0,1,.82-3.79,6.24,6.24,0,0,1,2.39-2.57,7.14,7.14,0,0,1,3.76-.94,7.22,7.22,0,0,1,3.77.93,6.09,6.09,0,0,1,2.38,2.57,8.34,8.34,0,0,1,.83,3.8v.26a8.41,8.41,0,0,1-.83,3.81A6.09,6.09,0,0,1,320,39.18,7.16,7.16,0,0,1,316.24,40.11Zm0-3.54a2,2,0,0,0,1.36-.45,2.69,2.69,0,0,0,.74-1.31,7.83,7.83,0,0,0,.23-2v-.26a7.67,7.67,0,0,0-.23-2,2.75,2.75,0,0,0-.75-1.31,2.23,2.23,0,0,0-2.74,0,2.59,2.59,0,0,0-.74,1.31,7.67,7.67,0,0,0-.23,2v.26a8,8,0,0,0,.23,2,2.48,2.48,0,0,0,.74,1.29A2,2,0,0,0,316.24,36.57Z"/><path class="cls-3" d="M326.52,39.83V37.12l1.67-.43v-8l-2-.43V25.51h6.38l.16,2a5.25,5.25,0,0,1,1.75-1.67,4.66,4.66,0,0,1,2.37-.6A3.94,3.94,0,0,1,340,26.61a6.56,6.56,0,0,1,1.17,4.32v5.76l1.67.43v2.71h-7.68V37.12l1.35-.43V30.92a2.35,2.35,0,0,0-.46-1.63,1.77,1.77,0,0,0-1.33-.49,2.39,2.39,0,0,0-1.11.24,2.2,2.2,0,0,0-.81.69v7l1.19.43v2.71Z"/><path class="cls-3" d="M132.65,54.94h-7.91v8h9.11l.12-2.88h1.4v4.22H121V63.11l2.16-.18V46.35L121,46.18V45h14.3v4.23H133.9l-.11-2.88h-9v7.24h7.91Z"/><path class="cls-3" d="M140.09,63.11,141.7,63l4.52-6-4.31-5.71-1.62-.14V50h4.86v1.18l-1.48.08,3.41,4.59,3.43-4.61L149,51.13V50h4.86v1.18l-1.6.14L148,57l4.52,6,1.61.15v1.16h-4.84V63.11l1.47-.07-3.64-4.87L143.47,63l1.47.07v1.16h-4.85Z"/><path class="cls-3" d="M157.8,51.13V50h3.48l.2,2.22a5.2,5.2,0,0,1,1.86-1.84,5.26,5.26,0,0,1,2.65-.65,4.68,4.68,0,0,1,4,2.06,9.34,9.34,0,0,1,1.46,5.49v.28A8.29,8.29,0,0,1,170,62.64a4.78,4.78,0,0,1-4,1.91,5.65,5.65,0,0,1-2.64-.58,4.76,4.76,0,0,1-1.85-1.63v6.09l2.16.17v1.18H157.8V68.6l2.16-.17V51.3Zm12.1,6.1a8.17,8.17,0,0,0-1.09-4.45,3.53,3.53,0,0,0-3.17-1.72,4.14,4.14,0,0,0-2.6.76,4.73,4.73,0,0,0-1.51,2v6.88a4.34,4.34,0,0,0,1.57,1.86,4.58,4.58,0,0,0,2.56.67,3.6,3.6,0,0,0,3.16-1.56,7.14,7.14,0,0,0,1.08-4.14Z"/><path class="cls-3" d="M175.65,44.8V43.62h3.73V62.93l2.16.18v1.16h-5.89V63.11l2.16-.18V45Z"/><path class="cls-3" d="M185.81,56.9a7.73,7.73,0,0,1,1.73-5.19,6.24,6.24,0,0,1,9.21,0,7.73,7.73,0,0,1,1.73,5.19v.44a7.71,7.71,0,0,1-1.73,5.19,5.72,5.72,0,0,1-4.59,2,5.78,5.78,0,0,1-4.62-2,7.71,7.71,0,0,1-1.73-5.19Zm1.59.44a6.82,6.82,0,0,0,1.26,4.18,4.44,4.44,0,0,0,7,0,6.82,6.82,0,0,0,1.26-4.18V56.9a6.83,6.83,0,0,0-1.26-4.16,4.41,4.41,0,0,0-7,0,6.83,6.83,0,0,0-1.26,4.16Z"/><path class="cls-3" d="M206.52,50l.2,2.38v.17a5.14,5.14,0,0,1,1.66-2.07,4.18,4.18,0,0,1,2.5-.75,3.81,3.81,0,0,1,.59,0c.19,0,.34.07.47.1l-.22,1.48-1.17-.08a3.6,3.6,0,0,0-2.46.84,4.61,4.61,0,0,0-1.37,2.31v8.55l2.16.18v1.16H203V63.11l2.16-.18V51.3L203,51.13V50h3.53Z"/><path class="cls-3" d="M222.08,64.55a5.74,5.74,0,0,1-4.47-2,7.28,7.28,0,0,1-1.77-5v-.72a7.46,7.46,0,0,1,1.76-5.1,5.48,5.48,0,0,1,4.27-2A5.29,5.29,0,0,1,226,51.35a6.37,6.37,0,0,1,1.51,4.45v1.35H217.41v.38a6.34,6.34,0,0,0,1.29,4,4.1,4.1,0,0,0,3.38,1.63,6.79,6.79,0,0,0,2.52-.41,4.87,4.87,0,0,0,1.79-1.18l.67,1.09a5.8,5.8,0,0,1-2,1.34A7.86,7.86,0,0,1,222.08,64.55ZM221.87,51a3.77,3.77,0,0,0-2.94,1.35,5.72,5.72,0,0,0-1.4,3.37l0,.06H226v-.39a4.6,4.6,0,0,0-1.1-3.13A3.75,3.75,0,0,0,221.87,51Z"/><path class="cls-3" d="M244.66,46.28V50h3.15v1.3h-3.15v9.33a3.11,3.11,0,0,0,.5,2,1.73,1.73,0,0,0,1.36.59q.39,0,.75,0c.24,0,.52-.06.84-.12l.24,1.18a4.35,4.35,0,0,1-1,.27,7.3,7.3,0,0,1-1.14.09,3,3,0,0,1-2.35-.95,4.5,4.5,0,0,1-.84-3V51.25h-2.46V50h2.46V46.28Z"/><path class="cls-3" d="M252.29,44.8V43.62H256V52.4a5.14,5.14,0,0,1,4.69-2.72,4.34,4.34,0,0,1,3.47,1.41,6.51,6.51,0,0,1,1.21,4.35v7.49l2.16.18v1.16h-5.9V63.11l2.15-.18V55.42a4.9,4.9,0,0,0-.92-3.35,3.25,3.25,0,0,0-2.53-1,4.27,4.27,0,0,0-2.72.86A4.87,4.87,0,0,0,256,54.18v8.75l2.16.18v1.16h-5.89V63.11l2.16-.18V45Z"/><path class="cls-3" d="M278.15,64.55a5.77,5.77,0,0,1-4.48-2,7.28,7.28,0,0,1-1.77-5v-.72a7.47,7.47,0,0,1,1.77-5.1,5.48,5.48,0,0,1,4.27-2,5.32,5.32,0,0,1,4.14,1.67,6.41,6.41,0,0,1,1.51,4.45v1.35H273.48v.38a6.34,6.34,0,0,0,1.29,4,4.09,4.09,0,0,0,3.38,1.63,6.7,6.7,0,0,0,2.51-.41,4.78,4.78,0,0,0,1.79-1.18l.67,1.09a5.67,5.67,0,0,1-2,1.34A7.86,7.86,0,0,1,278.15,64.55ZM277.94,51A3.79,3.79,0,0,0,275,52.38a5.79,5.79,0,0,0-1.4,3.37l0,.06H282v-.39a4.55,4.55,0,0,0-1.1-3.13A3.73,3.73,0,0,0,277.94,51Z"/><path class="cls-3" d="M301.39,46.18l-1.95.14,3,12.5.58,2.94h.08l.72-2.94L308.09,45h1.5l4.22,13.82.7,3,.08,0,.62-3,3-12.5-2-.14V45h5v1.18l-1.44.1-4.49,18h-1.5l-4.48-14.78-.51-2h-.08l-.47,2-4.53,14.78h-1.5l-4.48-18-1.45-.1V45h5Z"/><path class="cls-3" d="M324.34,56.9a7.68,7.68,0,0,1,1.74-5.19,6.23,6.23,0,0,1,9.2,0A7.73,7.73,0,0,1,337,56.9v.44a7.71,7.71,0,0,1-1.73,5.19,6.25,6.25,0,0,1-9.2,0,7.66,7.66,0,0,1-1.74-5.19Zm1.59.44a6.82,6.82,0,0,0,1.26,4.18,4.12,4.12,0,0,0,3.51,1.69,4.06,4.06,0,0,0,3.46-1.69,6.82,6.82,0,0,0,1.26-4.18V56.9a6.83,6.83,0,0,0-1.26-4.16,4.41,4.41,0,0,0-7,0,6.83,6.83,0,0,0-1.26,4.16Z"/><path class="cls-3" d="M345.05,50l.2,2.38v.17a5.14,5.14,0,0,1,1.66-2.07,4.2,4.2,0,0,1,2.5-.75,3.81,3.81,0,0,1,.59,0c.19,0,.34.07.47.1l-.22,1.48-1.17-.08a3.6,3.6,0,0,0-2.46.84,4.68,4.68,0,0,0-1.37,2.31v8.55l2.16.18v1.16h-5.89V63.11l2.16-.18V51.3l-2.16-.17V50h3.53Z"/><path class="cls-3" d="M354,44.8V43.62h3.73V62.93l2.16.18v1.16H354V63.11l2.16-.18V45Z"/><path class="cls-3" d="M374.35,62.21a4.91,4.91,0,0,1-1.84,1.73,5.43,5.43,0,0,1-2.65.61,4.76,4.76,0,0,1-4-1.92,8.34,8.34,0,0,1-1.45-5.12v-.28a9.42,9.42,0,0,1,1.45-5.49,4.69,4.69,0,0,1,4.05-2.06,5.12,5.12,0,0,1,2.59.63,5.25,5.25,0,0,1,1.83,1.8V45l-2.16-.17V43.62h3.75V62.93l2.15.18v1.16h-3.57ZM366,57.51a7.22,7.22,0,0,0,1,4.13,3.52,3.52,0,0,0,3.13,1.53,4.44,4.44,0,0,0,2.54-.69,4.5,4.5,0,0,0,1.6-1.89V53.81a4.86,4.86,0,0,0-1.53-2,4.15,4.15,0,0,0-2.59-.77,3.44,3.44,0,0,0-3.14,1.72A8.4,8.4,0,0,0,366,57.23Z"/><path class="cls-2" d="M78.53,0H22.1a9.79,9.79,0,0,0-9.79,9.79V50.35c0,9.08,11.17,13.49,17.55,7L52.42,34.52l-15.1-9.3,3.8-3.81,18.13,6,7.33-7.64a3.58,3.58,0,0,1,4.53-.61,3.51,3.51,0,0,1,.51,5.46L63.88,32l6,18.13L66.07,54l-9.3-15.11-19,19.73c-10.64,11-3,29.57,12.36,29.71h.34A38.16,38.16,0,0,0,88.63,50.14v-40A10.1,10.1,0,0,0,78.53,0Z"/><g class="cls-4"><g class="cls-5"><path class="cls-6" d="M45.85,64.25a5.12,5.12,0,0,0-1.5-.51l-1-.21-2.86-.63c-.38-.08-.83-.24-.9-.62a1.54,1.54,0,0,1,.12-.66c.05-.22,0-.51-.22-.58A2.59,2.59,0,0,0,38,59.76,14.17,14.17,0,0,1,36.18,59,3.31,3.31,0,0,1,35,57.64c-.4-.84-1.8-.8-2.73-.71a7.46,7.46,0,0,0-1.14.24l-2.21.59-.23.05h0l-.2,0a2.55,2.55,0,0,1-1.55-.24h0a1.83,1.83,0,0,1-.59-.41,1.52,1.52,0,0,1-.4-1,7.93,7.93,0,0,1,0-1.09c0-.3-.27-.54-.57-.59a6.76,6.76,0,0,0-.9,0,.79.79,0,0,1-.73-.44,1,1,0,0,1,.06-.55c.14-.45.21-1,.6-1.28.23-.16.51-.38.44-.65a.42.42,0,0,0-.36-.28.85.85,0,0,0-.47.1c-.75.38-1.21,1.32-2,1.43a1.58,1.58,0,0,1-1.58-1.15,5.67,5.67,0,0,1-.16-2.14,1.85,1.85,0,0,1,1.33-1.65,6.59,6.59,0,0,1,1.09-.1,4.18,4.18,0,0,0,1-.38,1.68,1.68,0,0,1,1.51.19c.68.46.91,1.34,1.38,2,.13.18.33.37.54.31a.43.43,0,0,0,.27-.4c0-.17,0-.39,0-.56a6.87,6.87,0,0,1,0-1.36,2.29,2.29,0,0,1,.54-1.23c.49-.54,1.36-.71,1.53-1.42a2.43,2.43,0,0,1,1.08-1.33,8.61,8.61,0,0,0,1.43-1,4.75,4.75,0,0,0,.76-1.24,2.17,2.17,0,0,1,1.57-1.12c.46-.07,1,0,1.31-.39a.92.92,0,0,0,0-1,6.39,6.39,0,0,0-.72-.84,1.29,1.29,0,0,1-.4-1,1.12,1.12,0,0,1,.67-.81A2.55,2.55,0,0,1,36.16,36a6.69,6.69,0,0,0,2-.17,1.56,1.56,0,0,0,1.16-1.41c0-.61-.55-1.07-1-1.5a2.52,2.52,0,0,1-.49-.66l0,0,0-.07,0-.07a2.78,2.78,0,0,1-.18-1.55.67.67,0,0,0-.19-.63c-.22-.16-.54,0-.74.18s-.42.42-.7.42-.57-.38-.6-.72.07-.68.05-1c0-.6-.59-1-1.06-1.36a1.11,1.11,0,0,0-1.21-.19,1.62,1.62,0,0,0-.59.7,4.22,4.22,0,0,0-.67,1.73c0,.45.07.9,0,1.35a1.87,1.87,0,0,1-.24.71h0a3.72,3.72,0,0,0-.54,1.13,5.54,5.54,0,0,1-.25,1.21.79.79,0,0,1-.31.44.56.56,0,0,1-.66-.26,2.07,2.07,0,0,1-.19-.74,5.8,5.8,0,0,0-3.07-4.22,1.49,1.49,0,0,1-.54-1.84,4.13,4.13,0,0,1,1.37-1.57c1-.83,2.17-1.5,3.25-2.3l1.3-.95a2.44,2.44,0,0,0,1-1.07,6.36,6.36,0,0,0,.14-.76.88.88,0,0,1,.4-.64c.39-.19.84.11,1.14.43a8.59,8.59,0,0,1,1.05,1.59h0a1,1,0,0,1-.31,1.54h0l-1.58.86c-.21.12-.46.31-.39.54s.41.25.66.28a1.71,1.71,0,0,1,1.08.72,3.62,3.62,0,0,1,.69,1.18.75.75,0,0,0,.85.52,1,1,0,0,0,.76-.72A1.71,1.71,0,0,0,37.37,26c-.13-.35-.12-.78-.4-1a.32.32,0,0,1,.12-.52.47.47,0,0,1,.44.17c.12.13.2.28.32.39a.86.86,0,0,0,.81.13c.15-.06.42-.26.25-.79h0c-.2-.6-.4-1.21-.59-1.81s-.39-1.16-.58-1.74a2,2,0,0,0-.81-1.17,5.81,5.81,0,0,1-2-2.08,5.73,5.73,0,0,0-.67-1.08c-.28-.32-.85-.83-1.2-.59a3.72,3.72,0,0,0-1.42,1.89,1.5,1.5,0,0,0-.06.91,3.49,3.49,0,0,0,.52.81,1,1,0,0,1,.06.91,1.94,1.94,0,0,1-.36.68.71.71,0,0,1-.68.27c-.32-.07-.5-.41-.6-.72a3.59,3.59,0,0,1-.11-1.46c.06-.74.13-1.47.2-2.21a1.17,1.17,0,0,1,.19-.64,1.44,1.44,0,0,1,.88-.33c.31-.07.67-.25.67-.57a.47.47,0,0,0-.27-.43.8.8,0,0,0-.53-.06,2.1,2.1,0,0,0-1.25,1,25.87,25.87,0,0,0-.93,2.51,2.89,2.89,0,0,0-.22,1.27A3.08,3.08,0,0,1,29,21.08a1,1,0,0,1-1,.68c-.4-.05-.68-.4-1-.67-.46-.4-1.1-.41-1.65-.67a.84.84,0,0,0-.74.15,1,1,0,0,1-.74.21c-.22-.07-.35-.29-.51-.46-.41-.47-1.11-.42-1.72-.57a1,1,0,0,1-.34-.13.32.32,0,0,1-.11-.33.36.36,0,0,1,.29-.18.92.92,0,0,0,.34-.12.35.35,0,0,0,.05-.39,3.44,3.44,0,0,0-1-.94h0a5.37,5.37,0,0,1-.53-.34h0l0,0h0a1.09,1.09,0,0,0-.47-.19,1.28,1.28,0,0,1-.66-.26c-.17-.17-.2-.42-.32-.63a1.21,1.21,0,0,0-.85-.54,2.54,2.54,0,0,0-1.06,0A11.93,11.93,0,0,1,15.4,16a1.73,1.73,0,0,1-.68,0c-.22-.05-.39-.32-.57-.46a13.29,13.29,0,0,1-3.38-3.26,2.37,2.37,0,0,0-1.29-1,2,2,0,0,0-1.69.07l-1.37,1a2,2,0,0,1-.67.36c-.27.06-.59,0-.82.16a.65.65,0,0,0-.24.49,1.26,1.26,0,0,0,0,.58,2.71,2.71,0,0,1,.15,2,.6.6,0,0,1-.68.23c-.25-.06-.47-.21-.72-.29a1.4,1.4,0,0,0-1.18.15c-.34.22-.41.59-.54,1a.63.63,0,0,0,.3.73c.44.22,1-.18,1.52,0,.13-.06.27.08.28.22a.59.59,0,0,1-.16.37,5.15,5.15,0,0,1-1.83,1.2A3.06,3.06,0,0,0,.15,20.87a1.64,1.64,0,0,0,.09,1.37c.08.15.18.28.25.43s.17.39.06.51a.51.51,0,0,0-.11.54A.46.46,0,0,0,.88,24a1.39,1.39,0,0,1,.5.09.5.5,0,0,1,.31.38c0,.24-.18.43-.37.59L.21,26c-.11.09-.22.2-.21.33a.28.28,0,0,0,.27.23.8.8,0,0,0,.37-.08,10.76,10.76,0,0,1,1.63-.63,1.53,1.53,0,0,0,1-1c.19-.44.28-.93.5-1.35a2.46,2.46,0,0,1,1-1,.71.71,0,0,1,.53-.1.3.3,0,0,1,.15.43,1.84,1.84,0,0,1-.51.53,1.14,1.14,0,0,0-.43.59c0,.24.07.42.32.41a1.2,1.2,0,0,0,1-.46,1.57,1.57,0,0,1,1-.56c1.07,0,1.93,1.08,2.64,1.87a7.7,7.7,0,0,1,1.42,2,6.29,6.29,0,0,1,.44,4.24,2.25,2.25,0,0,0,.62,2.24,1.77,1.77,0,0,1,.56.63,1.28,1.28,0,0,1-.11.83,20.35,20.35,0,0,0-1.55,4.46c-.17,1.47-.19,3.15.75,4.3a11.87,11.87,0,0,1,1.84,4.4,8.08,8.08,0,0,0,1,2.08.77.77,0,0,0,.55.42.42.42,0,0,0,.36-.21.78.78,0,0,0,0-.48,2.5,2.5,0,0,0-.45-1,5,5,0,0,1-1.12-2.19c0-.25,0-.5,0-.75a.55.55,0,0,1,0-.22.17.17,0,0,1,.16-.13c.08,0,.25.11.21.17a4.82,4.82,0,0,0,1.23,2.53,4.82,4.82,0,0,1,1,1.46,7.79,7.79,0,0,0,1.2,2.75,4.32,4.32,0,0,0,2.42,1.72c.86.2,1.82.43,2.69.58a2.68,2.68,0,0,1,2,1.59,4.42,4.42,0,0,0,.68,1.51c.43.44,1.17.4,1.77.46a1.33,1.33,0,0,1,1.12,1.75,4.31,4.31,0,0,1-.62,1A6.53,6.53,0,0,0,27.06,64c-.24,1.43.55,2.81,1.32,4.05.61,1,1,2.19,1.88,2.9a5.47,5.47,0,0,1,1.88,3.64c.19,1.38.5,3,0,4.31-.62,1.52-1.25,3.18-.8,4.76.24.82.75,1.55,1,2.37a15.43,15.43,0,0,1,.3,2,3,3,0,0,0,.82,1.84c.55.49.91,1.18,1.47,1.65a1.44,1.44,0,0,0,.71.37.55.55,0,0,0,.6-.41.77.77,0,0,0-.1-.42c-.33-.73-.65-1.46-1-2.18a.89.89,0,0,1,.11-.83c.14-.27.36-.5.53-.76a.94.94,0,0,0,.14-.88c-.12-.28-.45-.44-.54-.74a.8.8,0,0,1,.22-.71,7,7,0,0,0,.53-.56A1.35,1.35,0,0,0,36,82.69a1.4,1.4,0,0,1,.46-1.23,4.54,4.54,0,0,1,1.11-.73,2.93,2.93,0,0,0,1-.8,1.35,1.35,0,0,1,.47-1.18c.35-.3.75-.52,1.08-.83.9-.86,1-2.23,1.56-3.35a4.93,4.93,0,0,1,2.52-2.41A5.59,5.59,0,0,0,45,69.42a7.76,7.76,0,0,1,.08-1.37,1.33,1.33,0,0,1,.82-1,1.62,1.62,0,0,0,.82-1.51A1.72,1.72,0,0,0,45.85,64.25Z"/><path class="cls-6" d="M17.49,14.55a1.27,1.27,0,0,0,.32,2,1.83,1.83,0,0,1,.38.23.32.32,0,0,1,.09.39c-.09.15-.32.14-.48.08a.88.88,0,0,0-.51-.13.48.48,0,0,0-.33.43,1.36,1.36,0,0,0,.11.56c.13.36.3.76.66.88s1.05-.35,1.58-.25a1.42,1.42,0,0,1,.66.46,1.66,1.66,0,0,0,.62.5.52.52,0,0,0,.69-.24c.09-.23-.06-.48,0-.72s.36-.51.59-.73a3.33,3.33,0,0,0,.71-2.44,1.67,1.67,0,0,0,0-.5.49.49,0,0,0-.35-.32c-.3,0-.5.29-.69.53s-.55.58-.84.48-.66-.65-.89-.87a2.47,2.47,0,0,0-.83-.64A1.31,1.31,0,0,0,17.49,14.55Z"/><path class="cls-6" d="M15.89,15.05a.54.54,0,0,0,.45-.21,2.12,2.12,0,0,0,.28-.43,2.65,2.65,0,0,1,1.18-1,2.86,2.86,0,0,0,1.11-.57.94.94,0,0,0-.1-1.28c-.57-.49-1.44,0-1.92.41A4.3,4.3,0,0,0,15.53,14a1.2,1.2,0,0,0,0,.62A.5.5,0,0,0,15.89,15.05Z"/><path class="cls-6" d="M21.42,51.38c-.15,0-.34,0-.34.2s.11.17.21.22l1,.47a9.91,9.91,0,0,0,1.43.61.93.93,0,0,0,.52,0c.84-.27-.59-1-.83-1.11A5,5,0,0,0,21.42,51.38Z"/><path class="cls-6" d="M25.74,53.15a.53.53,0,0,0-.49.16.36.36,0,0,0,.07.4.69.69,0,0,0,.37.19,1.93,1.93,0,0,0,.86.05c.29-.05.68-.3.4-.6S26.08,53.15,25.74,53.15Z"/><path class="cls-6" d="M53.18,23.06a1.64,1.64,0,0,0,.22-1.55c-.22-.52-.8-1-.56-1.53s.65-.44,1-.59a2.09,2.09,0,0,0,1.25-2.29,6.87,6.87,0,0,1,1.73-6,2.66,2.66,0,0,0,.51-.65.73.73,0,0,0,0-.78.87.87,0,0,0-.87-.15,3.88,3.88,0,0,1-.89.23c-.31,0-.66-.18-.67-.49s.3-.52.54-.72.43-.61.18-.79a4.87,4.87,0,0,0-4.41-.87,8.21,8.21,0,0,1-2.78.89c-.54,0-1-.25-1.59-.32a1.3,1.3,0,0,0-1.38.61c-1.07.72-2.17,1.72-3.24,2.44a3.61,3.61,0,0,0-1.68,1.84,1.81,1.81,0,0,0,.47,1.7,6.78,6.78,0,0,0,1,.72,1.47,1.47,0,0,1,.72,1c.11,1.08.6,2.11.78,3.19a8.22,8.22,0,0,1,.09,2.27,5.53,5.53,0,0,1-1.36,3,3.11,3.11,0,0,0-.52,1.21,1.76,1.76,0,0,0,.1,1.24c.2.35.56.61.64,1a2.61,2.61,0,0,1,0,.56.76.76,0,0,0,.13.53.87.87,0,0,0,.77.07c.36-.2.78.15,1,.48s.6.73,1,.6.45-.61.53-1a5,5,0,0,1,2.45-3c1.14-.7,2.41-1.16,3.56-1.84A3.78,3.78,0,0,0,53.18,23.06Z"/><path class="cls-6" d="M49.68,31.6c.22-.22.31-.5.56-.7s.72-.34.89-.66a.58.58,0,0,0,0-.58.74.74,0,0,0-.51-.32c-.64-.1-1.24.49-1.87.37-.34-.06-.69-.33-1-.18a.58.58,0,0,0-.22.74,1.68,1.68,0,0,0,.55.64C48.42,31.24,49.17,32.14,49.68,31.6Z"/><path class="cls-6" d="M121.57,15.94c-.09-.11-.2-.2-.29-.31a1.57,1.57,0,0,1-.24-.91,2.24,2.24,0,0,0-.14-.93.69.69,0,0,0-.76-.43,2.54,2.54,0,0,1-1.47,0c-.7-.24-1.12-1-1.81-1.28a15.77,15.77,0,0,0-1.92-.46,4.85,4.85,0,0,0-2.17-.13,1.63,1.63,0,0,0-1.3,1.53.34.34,0,0,1-.19.28,1.42,1.42,0,0,1-.31.11l-1.43.33a2.64,2.64,0,0,1-.62.08.81.81,0,0,1-.56-.23,10.43,10.43,0,0,0-1.31-.95.57.57,0,0,0-.37-.16.6.6,0,0,0-.29.16,2,2,0,0,1-1.48.39,22.27,22.27,0,0,1-3.3-.78,2.15,2.15,0,0,0-1.35,0,.41.41,0,0,0-.22.16c-.06.12,0,.26.09.37.15.26.32.6.45.87a.35.35,0,0,1-.09.36,1,1,0,0,1-.33.2L98.48,15a1.66,1.66,0,0,1-.94.2,1.13,1.13,0,0,1-.66-.43,3.89,3.89,0,0,1-.45-.69A.76.76,0,0,0,96,13.7a2.33,2.33,0,0,0-.59-.08,2.49,2.49,0,0,1-1-.13.25.25,0,0,0-.31.15,1.59,1.59,0,0,0-.07.38,1.07,1.07,0,0,1-.69.74,1.68,1.68,0,0,1-1,0,4.69,4.69,0,0,1-1-.34,1,1,0,0,0-1.23.31c-.14.22-.23.54-.48.58s-.47-.26-.45-.52a2.45,2.45,0,0,1,.3-.73c.43-.87-.08-1.83-.56-2.66a.6.6,0,0,0-.87-.14c-.13.12-.21.31-.37.39a.51.51,0,0,1-.54-.14,2.36,2.36,0,0,1-.28-.52,2.37,2.37,0,0,0-.72-.85.85.85,0,0,0-1,0,.81.81,0,0,0-.17.83,1.21,1.21,0,0,0,.59.7.55.55,0,0,1,.22.67,1,1,0,0,1-.53.53,7,7,0,0,1-.73.25c-.65.22-1,.84-1.61,1.17a.8.8,0,0,0-.41.54.78.78,0,0,0,.16.66c.11.15.27.25.38.39a.43.43,0,0,1,.09.5.4.4,0,0,1-.36.15c-.13,0-.26-.09-.4-.09a.52.52,0,0,0-.48.33.91.91,0,0,0,0,.61,1.9,1.9,0,0,0,.3.49,1.33,1.33,0,0,1,.25.47.47.47,0,0,1-.13.49.53.53,0,0,1-.57,0c-.18-.09-.32-.23-.5-.34s-.41-.24-.54-.09a1.23,1.23,0,0,0-.15,1.21c.14.41.39.77.53,1.17s.23,1-.1,1.24a.7.7,0,0,1-.9-.13,2,2,0,0,1-.43-.88c-.15-.52-.31-1-.46-1.56a1.67,1.67,0,0,0-.23-.53.59.59,0,0,0-.49-.27c-.35,0-.54.42-.55.77,0,1,.84,2,.66,3a.45.45,0,0,1-.49.3,1.08,1.08,0,0,1-.54-.28,2,2,0,0,0-.5-.37.55.55,0,0,0-.59,0c-.2.18-.08.44-.08.71s-.2.37-.4.45a4.35,4.35,0,0,0-.61.2,5.91,5.91,0,0,1-.52.35c-.27.1-.71,0-.72-.28a.43.43,0,0,0-.41-.41c-.26,0-.47.22-.61.44s-.24.53-.47.66a.45.45,0,0,1-.43.24c-.18,0-.35-.07-.52-.08a.54.54,0,0,0-.44.14.41.41,0,0,0,0,.51,1.23,1.23,0,0,1,.08.38.45.45,0,0,1-.15.35.72.72,0,0,1-.67,0c-.26-.13-.57.08-.71.34a5.8,5.8,0,0,0-.24.84c-.09.27-.31.55-.6.55s-.51-.29-.67-.55l-.57-.9a.75.75,0,0,1-.13-.35.47.47,0,0,1,.4-.4,1.8,1.8,0,0,1,.61.05,1,1,0,0,0,.6-.05.72.72,0,0,0,.2-.95,1.05,1.05,0,0,0-.7-.65,4.15,4.15,0,0,1-2.48-1.14,2.87,2.87,0,0,0-.64-.74,1.12,1.12,0,0,0-.93,0c-.3.1-.53.38-.83.49a6.89,6.89,0,0,0-3,2.65,8,8,0,0,0-.83,2,3,3,0,0,1-1.36,1.74,1.48,1.48,0,0,0-.34.21.41.41,0,0,0-.14.36c0,.13.11.23.15.36a.78.78,0,0,1,0,.4,8.88,8.88,0,0,0-.05,1,.69.69,0,0,0,.16.5.46.46,0,0,0,.48.14c.27-.09.38-.44.64-.55a.58.58,0,0,1,.7.38c.1.27,0,.58.09.86l.19.74a.68.68,0,0,0,.31.49.67.67,0,0,0,.54-.1A2.28,2.28,0,0,0,62,33a1.08,1.08,0,0,0,.3-.8c-.18-1.54-.67-3.38.29-4.59a8.8,8.8,0,0,1,.65-.72,2.31,2.31,0,0,1,.53-.4.87.87,0,0,1,.65-.06.57.57,0,0,1,.39.49.93.93,0,0,1-.27.55c-.23.28-.39.58-.64.83a1.07,1.07,0,0,0-.14,1.27,1.28,1.28,0,0,0,1.21.44,4.44,4.44,0,0,1,1.31.11c.14,0,.31.12.32.27s-.15.24-.29.28a4.19,4.19,0,0,0-1,.16.86.86,0,0,0-.43,1.07c.09.2-.12.42-.34.49a2.25,2.25,0,0,0-.64.18c-.34.23-.31.73-.45,1.11a1.53,1.53,0,0,1-1.3.89,5.23,5.23,0,0,1-1.67-.14,1.15,1.15,0,0,1-.85-.91,1.64,1.64,0,0,0,0-.32.3.3,0,0,0-.24-.21c-.13,0-.24.13-.26.26a.93.93,0,0,0,.09.4,1.21,1.21,0,0,1,.16.58.8.8,0,0,1-.35.59,3.69,3.69,0,0,1-.62.33,3.74,3.74,0,0,0-2,1.82,1.16,1.16,0,0,1-.75.55l-1,.36c-.29.1-.62.26-.68.56a.81.81,0,0,0,.37.71,1.82,1.82,0,0,1,.58.59.69.69,0,0,1-.06.64.72.72,0,0,1-.58.3,3.26,3.26,0,0,0-1.32.19,2,2,0,0,0-1,1.38,2,2,0,0,0,.63,2,1.92,1.92,0,0,0,2.08.2c1.24-.66,1.45-2.49,2.66-3.21a4,4,0,0,1,2.1-.35c1.21,0,2,1.46,2.3,2.62,0,.2.12.44.31.52a.44.44,0,0,0,.46-.1,1.27,1.27,0,0,0,.27-.41,1.2,1.2,0,0,0,.19-.77c-.08-.38-.49-.57-.82-.77a3.51,3.51,0,0,1-1.13-1,.53.53,0,0,1-.12-.53.39.39,0,0,1,.44-.16,1.06,1.06,0,0,1,.43.26A6.66,6.66,0,0,1,64.27,44a1.51,1.51,0,0,0,.16.48.48.48,0,0,0,.43.25.51.51,0,0,0,.36-.52,2.2,2.2,0,0,0-.19-.65.83.83,0,0,1,0-.67.6.6,0,0,1,.68,0,1.8,1.8,0,0,1,.46.56l.93,1.5a1,1,0,0,0,.77.5,3.61,3.61,0,0,0,1-.12,1.85,1.85,0,0,1,1,0,1.07,1.07,0,0,1,.69,1,1.09,1.09,0,0,1-.58,1,2.54,2.54,0,0,1-1.19.16l-1.94,0a4.33,4.33,0,0,1-1.3-.16c-.41-.13-.84-.39-1.25-.24a1.52,1.52,0,0,0-.58.55,1.17,1.17,0,0,1-.61.49c-.26.06-.59-.15-.53-.42a2.22,2.22,0,0,0-1.5-.89,1,1,0,0,1-.53-.14c-.23-.19-.15-.56-.15-.87a1.38,1.38,0,0,0-.85-1.25,3.27,3.27,0,0,0-2.24.1,13.87,13.87,0,0,1-2.16.68,7.36,7.36,0,0,0-.94.15,1,1,0,0,0-.71.58c-.54,1.45-2,2.5-2.88,3.75A10.33,10.33,0,0,0,49,52.39a5.78,5.78,0,0,0-.2,1.55l-.08,1a3.32,3.32,0,0,0,0,.63,1.89,1.89,0,0,0,.41,1c.67.19,1,1,1.24,1.7a3.77,3.77,0,0,0,.94,1.84,2.1,2.1,0,0,0,1.71.34,6,6,0,0,0,1.66-.67c1.22-.63,2.79,0,4,.71a4.45,4.45,0,0,1,.64.37c.28.23.59.51.58.87s-.21.53-.31.8A1.1,1.1,0,0,0,60,63.83a3.59,3.59,0,0,1,1.18,4.07,14.67,14.67,0,0,0-.62,1.49A1.33,1.33,0,0,0,61,70.85a2.64,2.64,0,0,1,.85,1.88c.11.58.07,1.17.14,1.76A2.18,2.18,0,0,0,62.69,76c.69.51,0,1.83.53,2.51a1.78,1.78,0,0,0,1.44.53,4.72,4.72,0,0,0,3.27-1.4,3.84,3.84,0,0,0,1.14-1.44,3.85,3.85,0,0,1,.37-1.13,4.08,4.08,0,0,1,.94-.75.92.92,0,0,0,.39-1,2.17,2.17,0,0,1,.3-2.13A8.94,8.94,0,0,1,72.39,70,1.55,1.55,0,0,0,73,68.38a6.71,6.71,0,0,1-.16-3.74A4.17,4.17,0,0,1,75,61.78a4,4,0,0,0,1.8-1.7,1.8,1.8,0,0,0-1.28-3,4.27,4.27,0,0,1-1.33-.34,1.64,1.64,0,0,1-.78-.9c-.1-.28-.42-.39-.62-.6a3.22,3.22,0,0,1-.53-.79L71.51,53c-.55-1-1-2.13-1.55-3.14a1,1,0,0,1-.18-.5.4.4,0,0,1,.27-.42c.21,0,.39.13.53.29a19.1,19.1,0,0,1,2.82,4.55,8.52,8.52,0,0,0,.74,1.75,2,2,0,0,0,1.6.88,2.81,2.81,0,0,0,1.36-.54L79,54.69a4.83,4.83,0,0,0,1.15-.85,1.75,1.75,0,0,0,.5-1.3,1.07,1.07,0,0,0-.92-1,5.56,5.56,0,0,1-2-.37,1.26,1.26,0,0,1-.84-.73,1.86,1.86,0,0,0-.81-1.06,1.91,1.91,0,0,1-.32-.24.38.38,0,0,1-.12-.37.36.36,0,0,1,.23-.22.73.73,0,0,1,.33,0,1.24,1.24,0,0,1,.57.15c.38.21.59.66.94.92a1.71,1.71,0,0,0,1.2.39,3.05,3.05,0,0,1,.67-.07,1.74,1.74,0,0,1,.71.4.88.88,0,0,0,.76.23,6.56,6.56,0,0,1,2.36.18,1.41,1.41,0,0,1,.62.13.53.53,0,0,1,.29.53,1,1,0,0,0,1.51,1c.23-.18.57.07.68.34a2.34,2.34,0,0,1,.08.88,4.79,4.79,0,0,0,.35,1.79,14.11,14.11,0,0,0,1.23,2.38,1,1,0,0,0,.61.49.68.68,0,0,0,.62-.51,3.17,3.17,0,0,0,.07-.87,3.1,3.1,0,0,1,1.21-2.29c.47-.36.86-.84,1.34-1.19a1.15,1.15,0,0,0,.5-.59c.06-.21,0-.46.13-.64a.45.45,0,0,1,.4-.15,1.33,1.33,0,0,1,.43.13,3.78,3.78,0,0,1,1.29.78,1.82,1.82,0,0,1,.48.78,4.71,4.71,0,0,0,.2.92.78.78,0,0,0,.7.53c.15,0,.3-.08.45-.08a.6.6,0,0,1,.51.36,1.89,1.89,0,0,1,.16.62,11.1,11.1,0,0,0,.43,3.18,8.92,8.92,0,0,0,.49.85L99,61.4a1.09,1.09,0,0,0,.63.41.46.46,0,0,0,.47-.05.35.35,0,0,0,.06-.33,1.33,1.33,0,0,0-.18-.3c-.25-.32-.42-.67-.65-1l-.66-1a4,4,0,0,1-.5-.91,1.27,1.27,0,0,1,.06-1c.1-.18.19-.33.4-.35a.59.59,0,0,1,.53.24c0,.22.27.34.47.4s.44.12.55.31.07.4.19.57a.38.38,0,0,0,.42.13.38.38,0,0,0,.25-.36.85.85,0,0,1,.35-.58,2.47,2.47,0,0,0,.48-.35.79.79,0,0,0,0-1,5.56,5.56,0,0,1-1.58-2.5,1.28,1.28,0,0,1,0-.55.5.5,0,0,1,.34-.39,7.06,7.06,0,0,1,1.37-.19,4,4,0,0,0,.85-.15,1.29,1.29,0,0,0,.7-.48,5.18,5.18,0,0,1,1.42-1.11.8.8,0,0,0,.46-.66,1.31,1.31,0,0,1,.27-.87,6.76,6.76,0,0,0,.55-.77.88.88,0,0,0,0-.9,2.1,2.1,0,0,1-.4-.75c0-.21,0-.44-.08-.66a2,2,0,0,0-.62-1.22.84.84,0,0,1-.08-1.09c.14-.16.37-.28.41-.49s-.14-.43-.33-.56a1.24,1.24,0,0,1-.52-.44.62.62,0,0,1,.25-.75,1,1,0,0,1,.84,0,2.46,2.46,0,0,1,1.1.95,9.11,9.11,0,0,1,.74,1.65,1,1,0,0,0,.28.43.63.63,0,0,0,.82-.16,1.06,1.06,0,0,0,.16-.87,2.66,2.66,0,0,0-.62-1,2.12,2.12,0,0,1-.41-.71,2,2,0,0,1,.3-1.32,4.28,4.28,0,0,1,.77-1.22c.24-.23.53-.41.79-.63a1.24,1.24,0,0,0,.48-.84c.08-1.48.67-2.86.35-4.3a5.71,5.71,0,0,0-.81-1.84,2.23,2.23,0,0,0-1-1l-.24-.09a1.09,1.09,0,0,1-.26-1.84,1.21,1.21,0,0,0,.33-1.21,2,2,0,0,1-.08-.72.79.79,0,0,1,.38-.48,2.2,2.2,0,0,1,.57-.23c.83-.24,1.73-.07,2.57-.29a1.62,1.62,0,0,0,.86-.44.66.66,0,0,0,0-.88c0-.4-.06-.83-.09-1.23a1.87,1.87,0,0,1,0-.53.57.57,0,0,1,.33-.39c.4-.12.8.4,1.2.26.14.08.29-.1.33-.27s.08-.36.23-.43a.32.32,0,0,1,.41.22,1,1,0,0,1,0,.51c-.09.37-.17.74-.25,1.11-.24,1.05-.48,2.11-.73,3.17a2.23,2.23,0,0,0,.36,1.72,26.15,26.15,0,0,1,1.64,3c.07.13.14.27.28.31s.49-.2.49-.46a4.15,4.15,0,0,0-.16-.78c-.1-.64.34-1.22.52-1.84a3.29,3.29,0,0,0-.52-2.71c-.32-.49-.82-.85-.89-1.44a1.36,1.36,0,0,1,.75-1.44,2.73,2.73,0,0,1,.69-.14,1.4,1.4,0,0,0,.67-.22.57.57,0,0,0,.21-.62,1.3,1.3,0,0,1,.28-1.18A2.18,2.18,0,0,0,119,20c0-.22-.06-.47.08-.63a1.85,1.85,0,0,1,.27-.19.45.45,0,0,0-.11-.73,1.21,1.21,0,0,1-.72-.73,2.46,2.46,0,0,1,0-1,2.41,2.41,0,0,1,.26-.9.77.77,0,0,1,.8-.39,1.57,1.57,0,0,1,.84.34,3.9,3.9,0,0,1,.34.46.84.84,0,0,0,.46.33.38.38,0,0,0,.46-.24A.44.44,0,0,0,121.57,15.94ZM72.2,41.7a.85.85,0,0,1-.86.45,7.35,7.35,0,0,1-1-.23,2.7,2.7,0,0,0-2.24.56c-.26.22-.66.63-1,.33a.91.91,0,0,1-.14-.94,4.89,4.89,0,0,1,1.31-2.08l.44-.4a1.14,1.14,0,0,1,.28-.21c.35-.16.76.07,1.08.3l1.46,1a2.07,2.07,0,0,1,.56.5A.76.76,0,0,1,72.2,41.7Zm5,2.51a1,1,0,0,1-1.29-.44,4.16,4.16,0,0,1-.34-1.49c-.16-1-1.31-2.08-.83-3.12a1,1,0,0,1,1.08-.57.86.86,0,0,1,.66,1c-.08.32-.35.56-.45.88a1.45,1.45,0,0,0,.41,1.33,6.65,6.65,0,0,1,.95,1.11A1,1,0,0,1,77.19,44.21ZM80,40.48a.89.89,0,0,1-.62.5.63.63,0,0,1-.59-.74.75.75,0,0,1,.09-.25l.14-.3.1-.22a.81.81,0,0,1,.36-.43C80.32,38.69,80.22,40.1,80,40.48Z"/><path class="cls-6" d="M54,33.79a1.62,1.62,0,0,1,.42,1.12c-.08.57-1.78,1.85-.45,2,.93.1,2.46-.6,2-1.75-.22-.58-.83-.9-1.06-1.47a10.47,10.47,0,0,1-.19-1.12c-.08-.37-.35-.75-.73-.74s-.66.5-.59.91A2.72,2.72,0,0,0,54,33.79Z"/><path class="cls-6" d="M51.88,35.9a.9.9,0,0,0,.12.36.39.39,0,0,0,.29.21c.22,0,.4-.15.54-.32a2.6,2.6,0,0,0,.51-.76c.24-.63-.18-1.29-.88-1a1.1,1.1,0,0,0-.53.63A1.8,1.8,0,0,0,51.88,35.9Z"/><path class="cls-6" d="M73.56,21.45c.17.08.39.13.52,0s-.12-.66-.24-.89a3.61,3.61,0,0,1-.21-.71c-.13-.49-.66-1.27-1.24-.78a.73.73,0,0,0-.22.51,1.3,1.3,0,0,0,.12.55A2.63,2.63,0,0,0,73.56,21.45Z"/><path class="cls-6" d="M73.74,17.56A3.23,3.23,0,0,1,75,16a2.38,2.38,0,0,0,1.15-1.54c0-.3-.16-.66-.46-.64a.66.66,0,0,0-.39.25c-.74.75-1.48,1.51-2.21,2.27-.36.36-.74.81-.62,1.3C72.62,18.36,73.51,18.17,73.74,17.56Z"/><path class="cls-6" d="M111.59,35.48a2.15,2.15,0,0,0,.64,1.11c.12.11.6.42.76.2s-.37-.89-.45-1.09a7.69,7.69,0,0,1-.36-1.33c-.09-.57-.1-1.15-.22-1.72a2.68,2.68,0,0,0-.77-1.51c-.2-.17-.52-.3-.71-.11a.45.45,0,0,0,0,.51,2,2,0,0,0,.34.43,3.11,3.11,0,0,1,.59,1.7A10.79,10.79,0,0,0,111.59,35.48Z"/><path class="cls-6" d="M109.15,45.64a1.25,1.25,0,0,0-.43.81c0,.65.8,1,1.07.36.12-.3.07-.5.31-.79a4.14,4.14,0,0,1,.92-.8,5.34,5.34,0,0,0,1.61-1.14A3.35,3.35,0,0,0,113,41.8c0-.25-.09-.56-.34-.62a.42.42,0,0,0-.4.2,1.5,1.5,0,0,0-.17.46,5.76,5.76,0,0,1-2.2,3.24A5.75,5.75,0,0,0,109.15,45.64Z"/><path class="cls-6" d="M100.1,63.56,98,61.41a2.13,2.13,0,0,0-.65-.51.73.73,0,0,0-.79.09.83.83,0,0,0,.14,1.11c.3.29.7.44,1,.71a4.08,4.08,0,0,1,.93,1.34,3,3,0,0,0,1,1.25c.39.22,1.28.28,1.44-.28S100.42,63.89,100.1,63.56Z"/><path class="cls-6" d="M105,64.16c.14-.27-.11-.62,0-.9s.83-.33,1-.72-.2-.66-.2-1,.65-.88.5-1.35a.64.64,0,0,0-.86-.27,2.56,2.56,0,0,0-.78.65,3.85,3.85,0,0,1-1.76.93c-.49.13-.88.29-1,.85-.16,1.34,1.25,2,2.32,2C104.53,64.41,104.87,64.4,105,64.16Z"/><path class="cls-6" d="M76.54,68.51a.82.82,0,0,0-.49.56,1.88,1.88,0,0,1-.35.69c-.29.28-.8.26-1.08.56s-.22.73-.29,1.09a1.38,1.38,0,0,1-.43.78,1,1,0,0,0,0,1.53,1.2,1.2,0,0,0,1.43.12A2,2,0,0,0,76,72.38a4.54,4.54,0,0,1,.35-1.63A7.17,7.17,0,0,1,77,70a1.31,1.31,0,0,0,.28-.92A.62.62,0,0,0,76.54,68.51Z"/></g></g></g></g></g></g></g></svg>