<svg xmlns="http://www.w3.org/2000/svg" viewBox="0 0 576.5 322.65"><defs><style>.cls-1{fill:#fff;}</style></defs><title>objects-over-photo</title><g id="Layer_2" data-name="Layer 2"><g id="Home_Page" data-name="Home Page"><g id="objects"><g id="over_photo_objects" data-name="over photo objects"><rect class="cls-1" x="16.13" y="178.28" width="556.98" height="127.34" transform="translate(-14.34 18.61) rotate(-3.53)"/><rect class="cls-1" x="103.67" y="99.07" width="372.12" height="127.34" transform="translate(-19.72 41.62) rotate(-7.95)"/><path class="cls-1" d="M506.72,168.46l-.26-1.88A4.21,4.21,0,0,0,503,163v0H503a4.91,4.91,0,0,0-.66-.06l-1.44-10.63.51-.07h.05l.44-.06a.94.94,0,0,0,.81-1.06l-.05-.42a1,1,0,0,0-1.07-.81l-.29,0h0l-.19,0-.52.07-1.46-10.77.51-.07h0l.48-.07a.94.94,0,0,0,.81-1.06l0-.42a1,1,0,0,0-1.07-.82l-.29,0h0l-.19,0-.52.07-1.46-10.77.51-.07h0l.48-.07a1,1,0,0,0,.81-1.07l-.05-.42a1,1,0,0,0-1.07-.81l-.29,0h0l-.15,0-.56.08-1.46-10.78.51-.06h.05l.44-.06a1,1,0,0,0,.81-1.07l-.05-.42a1,1,0,0,0-1.07-.81l-.29,0h0l-.19,0-.69.09H495l-2,.27h0l-.16,0-.72.1h0l-1.31.18-1.46-10.77.59-.08h0l.19,0v0a1.21,1.21,0,0,0,.84-1.31l-.08-.53a1.2,1.2,0,0,0-1.15-1v0l-.19,0h0l-.53.07h0l-.17,0-.7.1h-.06l-.59.08h-.14l-.53.08h0l-.69.09h0l-.19,0-.53.07h0l-.2,0h0l-.58.08-.15,0h0l-.53.07h0l-.69.09h0l-.18,0-.55.08h0l-.2,0h0l-.58.08-.14,0h0l-.53.08h0l-.2,0h0l-.53.07h0l-.2,0h0l-.53.07h0l-.2,0h0l-.57.08-.16,0h0l-.53.07h0l-.2,0h0l-.52.07h0l-.2,0h0l-.53.07h0l-.2,0h0a1.2,1.2,0,0,0-1,1.35l.08.53a1.19,1.19,0,0,0,1.35,1h.1l.11,0h0l.38,0L478.85,113l-1.11.15h0l-.12,0-.6.08h0l-.2,0h0l-.63.09h-.1l-1.26.17h-.08l-.65.09h0l-.2,0h0l-.21,0a1,1,0,0,0-.81,1.06l.06.42A1,1,0,0,0,474,116l.71-.09,1.46,10.77-.31,0h0l-.2,0h0l-.21,0a1,1,0,0,0-.81,1.06l.06.42a1,1,0,0,0,1.07.81l.71-.09L478,139.75l-.31,0h0l-.2,0h0l-.21,0a1,1,0,0,0-.81,1.06l.06.42a1,1,0,0,0,1.07.81l.93-.12h0l-.22,0,1.46,10.77-.31,0h0l-.2,0h0l-.21,0a1,1,0,0,0-.81,1.06l.06.42a1,1,0,0,0,1.07.81l.71-.09,1.43,10.59h-.07a4.22,4.22,0,0,0-3.62,4.75l.26,1.87a4.22,4.22,0,0,0,4.75,3.62l20.32-2.76A4.22,4.22,0,0,0,506.72,168.46Zm-23.67-16.09-.12,0-.55.07-.94-6.9a1.29,1.29,0,1,1,2.56-.35l.94,6.91-.51.06-.12,0h0l-.53.07-.2,0h0l-.53.07Zm-3.54-26.14-.15,0-.52.07-.94-6.9a1.29,1.29,0,1,1,2.56-.35l.94,6.9-.5.07-.13,0h0l-.53.07h0l-.2,0h0l-.53.07Zm1.77,13.07-.12,0-.55.07-.94-6.9a1.29,1.29,0,1,1,2.56-.35l.94,6.9-.5.07-.13,0h0l-.53.07-.2,0h0l-.53.07Zm15.52,11.21h-.11l-1.26.17h0l-.11,0-.28,0-.94-6.91a1.29,1.29,0,0,1,2.56-.34l.94,6.9-.18,0h0Zm-4.28.58h-.09l-.64.09h0l-.2,0h0l-.65.09h-.12l-.94-6.91a1.29,1.29,0,0,1,2.56-.34l.94,6.9-.86.12Zm-5.17.7-.13,0h0l-.53.07h-.09l-.94-6.9a1.29,1.29,0,1,1,2.56-.35l.94,6.9-.28,0h0l-.17,0-.56.08h0l-.2,0h0Zm6.53-27.51-.62.09h-.11l-1.26.17h0l-.12,0-.27,0-.94-6.91a1.29,1.29,0,0,1,2.56-.35l.94,6.91-.18,0Zm-9,14.53h-.09l-.94-6.9a1.29,1.29,0,1,1,2.56-.35l.94,6.9-.28,0h0l-.2,0h0l-.53.07h0l-.2,0h0l-.58.08-.15,0h0l-.53.07Zm-1.77-13.07h-.09l-.94-6.91a1.29,1.29,0,0,1,2.56-.34l.94,6.9-.28,0h0l-.19,0-.54.07h0l-.2,0h0l-.58.07-.15,0h0ZM491.28,138l-.53.07h-.09l-.64.09h0l-.2,0h0l-.64.09h-.13l-.94-6.91a1.29,1.29,0,0,1,2.56-.34l.94,6.9-.16,0-.17,0Zm-1.59-13.1-.18,0h0L489,125h-.08l-.65.09h0l-.2,0h0l-.53.07h0l-.2,0h0l-.94-6.91a1.29,1.29,0,1,1,2.56-.34l.94,6.9ZM495,137.44h-.12l-1.26.17h0l-.13,0-.26,0-.94-6.91a1.29,1.29,0,0,1,2.56-.34l.94,6.9-.18,0h0Zm-7.83-25.56h-.09l-.64.09h0l-.2,0h0l-.65.09h-.07l-.89-6.55a1.3,1.3,0,0,1,1.11-1.46h0a1.3,1.3,0,0,1,1.45,1.11l.89,6.55Zm-3.64.49h0l-.2,0h0l-.66.09h-.07l-.6.08h-.13l-.44.06-.89-6.55a1.28,1.28,0,0,1,1.1-1.45,1.3,1.3,0,0,1,1.46,1.1l.89,6.56Zm.55,53-.91-6.72a1.29,1.29,0,1,1,2.56-.35l.91,6.72Zm4.22-.57-.91-6.72a1.29,1.29,0,1,1,2.56-.35l.91,6.72Zm3.31-7.3a1.29,1.29,0,0,1,2.56-.34l.91,6.72-2.56.35Zm4.22-.57a1.29,1.29,0,0,1,2.56-.34l.91,6.72-2.56.35ZM478.6,142l.23,0-.23,0Z"/><path class="cls-1" d="M29.19,157.46h0c-.46.17-13.2,3.37-13.2,3.37s-13.15,3.42-13.63,3.49c0,0-.33.07-.26,0A2.84,2.84,0,0,1,.18,164a.41.41,0,0,1,.43-.7,3.12,3.12,0,0,0,2.74.25,9.81,9.81,0,0,0,4.25-4.39.41.41,0,0,1,.26-.22L21,155.54l-.33.09L7.68,159h0l-1.76.45-.09-.32,1.77-.45-.15-.57A1.24,1.24,0,0,1,7.7,157l0-.22.17,0,0,.11a1.35,1.35,0,0,1,.48-.24l-.16,0-.27-1h0l-.08-.31h0l-1.07-4.19h0l-.08-.31h0l-.35-1.38h0A1,1,0,0,1,5.17,149l-1.8.46-.09-.32,1.77-.45H5l-.7.16s-.33.08-.26,0a2.71,2.71,0,0,1-2-.46.41.41,0,0,1,.47-.66,3.17,3.17,0,0,0,2.81.3,9.82,9.82,0,0,0,5.05-7.28.37.37,0,0,1,.26-.33l-.48-1.87-.69.18a.08.08,0,0,1-.09-.06.07.07,0,0,1,0-.09l.69-.18-.42-1.65a.08.08,0,0,1,.05-.1.08.08,0,0,1,.1.06l.42,1.65.74-.19a.09.09,0,0,1,.1.06.08.08,0,0,1-.06.09l-.74.19.48,1.88a.41.41,0,0,1,.33.18,9.46,9.46,0,0,0,7.42,4.08,3.38,3.38,0,0,0,2.57-1.72.4.4,0,0,1,.74.32A2.76,2.76,0,0,1,20,144.81h0l-.32.1h0l.64-.16.09.32-.69.17a1,1,0,0,1-.69.92l.41,1.61,0,.08h0l1.08,4.23.07.26h0l.26,1-.6.15.06,0,.28-.07a1.21,1.21,0,0,1,.6,0l0-.15.17-.05.07.27a1.23,1.23,0,0,1,.67.8l.14.57.64-.17.09.33-.84.21a.44.44,0,0,1,.35.07,8.8,8.8,0,0,0,5.21,2,3.39,3.39,0,0,0,2.55-1.66A.41.41,0,0,1,31,156,2.91,2.91,0,0,1,29.19,157.46ZM17,154.38l-.33-1.28v0h0l-1.09-4.24-.06-.25h0l-.35-1.37-4.84,1.24,1.84,7.19-.54.14,1.65-.42h0l.85-.21.06,0h0l.81-.21.09,0h0l.77-.2.13,0h0l.74-.19.17,0h0l.72-.19h0l.11,0Zm-7.56,1.94-.61.15,2.1-.54-.26-1h0l-.08-.3h0l-1.07-4.19h0l-.08-.31h0L9,148.74l-1.49.38Zm10.9-2.79-.63.16-1.41-5.52h0l0-.11-.4-1.57-1.49.39,1.5,5.86h0l.08.31h0l.26,1-.41.11h0l.73-.19h0l.17,0h0l.73-.19h0l.18,0h0l.72-.18Z"/><path class="cls-1" d="M34.39,171.11h0c-.53.19-15.37,3.93-15.37,3.93s-15.3,4-15.86,4c0,0-.38.09-.29,0a3.47,3.47,0,0,1-2.24-.33.44.44,0,0,1,.46-.75,4,4,0,0,0,3.25.2,11.92,11.92,0,0,0,5.08-4.62.47.47,0,0,1,.27-.21l16.7-4.27a.44.44,0,0,1,.35.06A10.45,10.45,0,0,0,32.68,171a4.39,4.39,0,0,0,3.08-1.9.44.44,0,0,1,.77.43A3.53,3.53,0,0,1,34.39,171.11Z"/><path class="cls-1" d="M26.46,168.67l0,.12h0l.08.33L9.51,173.48,9.4,173a1.66,1.66,0,0,1,.95-1.94v0l.18,0h0l.08,0,2.73-.69-.3-1.17h0l-.08-.3h0l-1.72-6.75,1.43-.37L13,163h0l.08.31h0l1.7,6.66.23-.06h0l.81-.21.09,0h0l.77-.2.13,0h0l.75-.19.16,0h0l.72-.19h0l.18,0h0l.72-.19h0l.88-.23h0l.07,0-.3-1.16h0L20,167h0l-1.73-6.75,1.43-.36.32,1.25h0l.08.3h0l1.71,6.67.26-.07h0l.08,0,.83-.21h0l.09,0,1.34-.35a1.74,1.74,0,0,1,.39-.05l0,0,.18-.05,0,.1A1.67,1.67,0,0,1,26.46,168.67Z"/><polygon class="cls-1" points="23.55 167.68 23.25 166.52 23.25 166.52 23.17 166.21 23.17 166.21 21.45 159.46 22.88 159.1 23.2 160.35 23.2 160.35 23.27 160.66 23.27 160.66 24.98 167.32 23.55 167.68"/><path class="cls-1" d="M1.26,192.57a5.09,5.09,0,0,0,4.3.36,14.8,14.8,0,0,0,5.87-4.61l-.17,0-.08-.32.57-.14-.12-.45a1.68,1.68,0,0,1,.54-1.69l0-.17.18,0,0,.09a1.81,1.81,0,0,1,.51-.23l-.24.06L11,179h0l0-.06-.44-1.73,1.66-.42.38,1.48h0l.07.24,1.22,4.77h0l0,.15.4,1.58.66-.17.09,0h0l.76-.19.14,0h0l.73-.18h0l.18-.05h0l.72-.18h0l.15,0-1.41.36-1.64-6.43h0l0-.07-.44-1.72,1.67-.43.38,1.49h0l.06.24,1.22,4.77h0l0,.15.4,1.57-.23.06h0l.73-.18h0l0,0,.86-.22h.07l.83-.22h0l.09,0,.82-.21h0l.1,0,.8-.2h0l.13,0,2.73-.7h0l.82-.21.08,0h0l.77-.19.13,0h0l.73-.19.18,0h0l.72-.19h0l.1,0-.27.07-.36-1.42h0l-.08-.31h0l-1.2-4.7h0l-.08-.31h0l-.38-1.48,1.67-.43,2.1,8.22-.42.11h0a1.51,1.51,0,0,1,.73,0l0-.16.18,0,.06.25a1.68,1.68,0,0,1,1.11,1.17l.11.45-.16,0h0l.81-.2.08.32-.28.07a12.76,12.76,0,0,0,6.55,1.44A5.51,5.51,0,0,0,42.58,182a.43.43,0,0,1,.81.28c-.15.72-.81,1.57-2.76,2.25h0c-.21.07-2.25.6-4.89,1.27l.39,1.54h0l.08.31,2.31,9h0l.31,1.22-9.29,2.37-1.17-4.59a2,2,0,0,0-2.48-1.47l-2.62.67a2,2,0,0,0-1.47,2.48l.86,3.37h0l.31,1.22h0l-7.72,8.53-4.14-16.18h0l-.13-.51h0l-.39-1.54c-3.36.87-6.18,1.58-6.43,1.62,0,0-.44.11-.34.06-1.78.23-2.68-.16-3.14-.68A.43.43,0,0,1,1.26,192.57Zm28.09-11.38-.78.2h0l.73-.19h.05Z"/><polygon class="cls-1" points="24.09 173.77 26.2 182 24.53 182.42 24.17 181 24.17 181 24.09 180.7 24.09 180.7 22.89 175.99 22.89 175.99 22.81 175.69 22.81 175.69 22.43 174.2 24.09 173.77"/><path class="cls-1" d="M533.26,146.62l-13.76-8.35,0-.34h.06a.41.41,0,0,0,.32-.67l-1.73-2L528,121.56a.46.46,0,0,0-.13-.65l-.36-.24a.49.49,0,0,0-.68.12l-9.69,13.35-1-1.17a.45.45,0,0,0-.7,0l-1.39,2-14.59-8.85a.5.5,0,0,0-.67.15l-.24.35a.45.45,0,0,0,.15.65l14.55,8.83-1.11,1.57a.41.41,0,0,0,.38.64h0l-.09,2.25L504,152.34a.46.46,0,0,0,.12.65l.37.24a.5.5,0,0,0,.68-.12l7.27-10-.93,23.71,4.06-.22,0-.2,3.78-.23v.11l4.46-.25-3.57-21.56,7.6,5.22,2-3.1-9.93-5.91-.09-.6,12.71,7.72a.52.52,0,0,0,.68-.15l.24-.36A.45.45,0,0,0,533.26,146.62Z"/><polygon class="cls-1" points="512.94 129.4 502.54 123.02 500.51 126.16 510.91 132.54 512.94 129.4"/><polygon class="cls-1" points="520.85 132.64 523.93 134.64 531.06 124.53 527.98 122.53 520.85 132.64"/><polygon class="cls-1" points="511.04 141.61 507.95 139.63 501.32 149 504.4 150.99 511.04 141.61"/><path class="cls-1" d="M94.86,150.34l-.07-1.16-2.64.16-.2-3.21-.93.06-.1-1.57.62,0-.11-1.8-.67,0a.36.36,0,0,0-.05-.72l-2.2.13-.26-4.11-.52,0L87.66,137l.53,0,0-.4-.52,0v-.19l.52,0,0-.4-.52,0-.33-5.43.52,0,0-.4-.52,0V130l.52,0,0-.41-.53,0-.11-1.94-.66,0,.12,1.94-.53,0,0,.4.52,0v.19l-.52,0,0,.4.52,0,.33,5.43-.52,0,0,.4.52,0v.19l-.52,0,0,.4.52,0,.07,1.11-.52,0,.25,4.11-2.2.13a.37.37,0,0,0-.33.39.36.36,0,0,0,.37.34l-.67,0,.11,1.8.62,0,.1,1.56-.94.06.2,3.21.07,1.17-2.63.16.07,1.16h0l1.78,8.94,2.22-.14,0,.64,1.91-.12,0,.57-1.91.11,0,.65.21,0,2.57,13.94.07,1.11-.6,0,.09,1.33.59,0,.29,4.7-1.09,18.83h-.1l0,.87L86.89,219A.08.08,0,0,0,87,219h0a.08.08,0,0,0,.08-.07l.86-14.85.52,0-.68,14.54a.08.08,0,0,0,.08.09h0a.09.09,0,0,0,.07-.08l.67-14.56.46,0-.46,14.53a.08.08,0,0,0,.07.09h0a.08.08,0,0,0,.07-.08L89.19,204l.55,0-.28,14.52a.07.07,0,0,0,.08.08h0a.08.08,0,0,0,.08-.07L89.89,204h.25l.91,14.72,2.64-.16-.91-14.73.31,0,2.07,14.39a.07.07,0,0,0,.08.07h0a.07.07,0,0,0,.06-.09l-2.06-14.38.54,0L96,218.13a.08.08,0,0,0,.08.07h0a.08.08,0,0,0,.06-.09L94,203.74l.45,0,2.46,14.37a.1.1,0,0,0,.09.07h0a.09.09,0,0,0,.07-.1L94.56,203.7l.52,0,2.68,14.62a.08.08,0,0,0,.08.07h0a.08.08,0,0,0,.06-.09l-2.69-14.73-.07-1.11H95l-3.5-19.14-.25-4.11.59,0-.09-1.34-.59,0,0-.53L92,162.59h0l0-.64-1.79.11,0-.56,1.8-.11,0-.64,2.33-.15.68-9.17-2.64.16-.07-1.07ZM88,202.87l1-17.52.18,2.84-.68,14.65Zm.66,0,.61-13.21.17,2.61a0,0,0,0,0,0,0l-.33,10.57Zm.59,0,.28-9,.32,5.16-.07,3.77Zm.69-.05,0-1.83.11,1.82Zm2.78-.17-.17-2.69.39,2.68Zm.37,0L92.42,198l-.32-5.05,1.5,9.61Zm.69,0-1.63-10.44c0-.05,0-.08-.08-.07l-.2-3.2,2.34,13.68Zm1.1-.07-.51,0-2.59-15.1-.17-2.77Zm-7-34.76L87,162.9l.32,0h0l.46,2.34Zm.07,1.19.17,2.76-1.69-8.71.36,0h0Zm2.67.37.46-6.6h0l.37,0L90.81,172Zm-.07-1.19-.15-2.46.2-2.92h0l.33,0Zm-2.89-4-.23-1.17h.15ZM86.06,163h.23l1.93,9.88.17,2.79Zm5,13.08-.17-2.83.73-10.58h.24Zm-.6-13.35-.12,1.73-.1-1.71Z"/><rect class="cls-1" x="542.22" y="114.9" width="8.53" height="44.5" transform="translate(-7.41 33.92) rotate(-3.53)"/><path class="cls-1" d="M553.39,91.58l-.61-9.79-.66,0,.61,9.79-1.67.1.69,11.2-3.33.2.06.88c-4.69,3.38-8.24,8.55-10.58,15.32a.45.45,0,0,0-.09.28,70.34,70.34,0,0,0-3.24,21.72c0,.57,0,1.14,0,1.71l-.1.08a.46.46,0,0,0-.13.48.41.41,0,0,0,.17.23h0l.07,0A129.91,129.91,0,0,0,537,167.24a.37.37,0,0,0,.37.33l14.94-.93h0l6.66-.41-3.92-63.52-.69-11.19Zm-2.94,63.14-6.12,5.56-7.26-4.73Zm-13.39,0,6.35-5.2,6.89,4.38Zm7-5.74,6.85-5.6.64,10.37Zm6.14-6.05-6.84,5.6-7.42-4.72Zm-14.31,0,7.11-5.87,7.24,5Zm7.75-6.4,6.51-5.38.64,10.31Zm-5.29-16.26,4.62,4.29-7,6.18A58,58,0,0,1,538.35,120.3Zm.77-.33,9.72-.6-5.29,4.7Zm4.43,5.16,5.61,5.19-12.3.76Zm5.35,6.05L543,136.09l-6-4.17Zm-4.77-6.57,5.33-4.73.63,10.25Zm-4.83-5.5,9.58-8.63.49,8ZM548.54,105l.27,4.51-9.73,8.78A29.17,29.17,0,0,1,548.54,105Zm-13.26,36.39a87.85,87.85,0,0,1,.56-9.2l6.48,4.47-7.05,5.82C535.27,142.07,535.27,141.71,535.28,141.35Zm7.43,7.7-6.82,5.58c-.31-3.1-.54-6.61-.6-10.3Zm-6.7,6.76,7.71,5-6.14,5.58C537.29,165,536.57,161,536,155.81Zm2.49,10.84,5.91-5.37,7,4.58Zm6.52-5.92,6.59-6,.66,10.72Z"/><path class="cls-1" d="M113.8,60.68A26,26,0,1,0,141.35,85,26,26,0,0,0,113.8,60.68Zm26.89,24.39,0,1-21.28-.46,21.08-2.19C140.59,83.94,140.65,84.5,140.69,85.07Zm-25.2,2.23h-.21l-.2,0-.16,0-.09,0a1.77,1.77,0,0,0,.61.08,1.67,1.67,0,0,0,.31,0h0Zm-1.71-1.53v-.19l0-.16.05-.18.07-.17.09-.16.12-.16.12-.13.14-.12.16-.1.08-.05a1.56,1.56,0,0,0-.86,1.49,1.48,1.48,0,0,0,.16.59l0-.1-.07-.19,0-.2Zm2.7-1.08.12.13.1.16,0,.07a1.48,1.48,0,0,0-.6-.64l.07,0,.15.11Zm.36.63,0,.17,0,.19v.19l0,.17,0,.17,0,.05a1.53,1.53,0,0,0,.09-.61,1.67,1.67,0,0,0-.16-.59l0,.08Zm-.15,1.21-.1.15-.08.1a1.68,1.68,0,0,0,.3-.52l0,.1Zm-1.35-2.34h.18l.18,0,.18,0,.16.07.09.05a1.56,1.56,0,0,0-.88-.21Zm-.1,0-.3,0h0l.2,0Zm-.32.06-.27.1.1,0Zm-1,2.24,0,0a1.53,1.53,0,0,0,.16.25l0,0Zm.22.31-.08-.1a1.65,1.65,0,0,0,.44.39l-.09-.06-.13-.1Zm.43.32-.06,0a1.23,1.23,0,0,0,.26.12h0Zm1.43,0-.15.06-.15,0a1.71,1.71,0,0,0,.54-.27l-.09.07Zm.29-.2,0,0a2.09,2.09,0,0,0,.22-.2l0,0Zm.92-5,8.06-18.62c.74.32,1.45.66,2.15,1Zm10.65-17.33a23.68,23.68,0,0,1,2,1.28L117.69,82.2ZM116.8,81.75l5.82-19.4a22,22,0,0,1,2.24.79Zm-.48-.14,3.49-19.92c.79.14,1.56.32,2.32.53Zm-.49-.09L117,61.35c.8,0,1.58.14,2.36.26Zm-.5,0-1.24-20.15c.79,0,1.59-.05,2.37,0Zm-.46.67L111.2,61.65c.78-.13,1.58-.22,2.39-.28Zm-.59-.46-6-19.39a23.56,23.56,0,0,1,2.38-.57Zm-.26.85-9.44-18.82a24.38,24.38,0,0,1,3.27-1.28Zm-.8-.49-11.17-17c.67-.42,1.36-.81,2.08-1.17Zm-.42.28L99.69,66.78c.62-.5,1.27-1,1.94-1.4Zm-.38.33-14.9-14c.57-.56,1.16-1.1,1.78-1.61Zm-1,1.19L92.37,76.07c.33-.71.7-1.41,1.09-2.09ZM93.72,73.55a25.64,25.64,0,0,1,1.56-2.29L112,83.62Zm17.53,10.77L91.33,78.74c.25-.75.53-1.49.84-2.21Zm-.13.49L90.59,81.52c.16-.78.35-1.55.58-2.3Zm-.09.49-20.87-.93A23.1,23.1,0,0,1,90.49,82Zm0,.5L90.08,87.26a23.77,23.77,0,0,1,0-2.39Zm.28,1.54L92,96.39c-.31-.73-.58-1.49-.82-2.26ZM91.06,93.65a27,27,0,0,1-.68-3l21.28-4Zm1.17,3.2,19.27-9L93.3,99a24.54,24.54,0,0,1-1.21-2.47ZM112,88.07,95.08,101.75a27,27,0,0,1-1.53-2.3Zm.26.43L97.14,104.18a26.12,26.12,0,0,1-1.76-2Zm1.12.89-9,20c-.81-.4-1.6-.84-2.36-1.31Zm-11.81,18.47c-.65-.42-1.28-.88-1.89-1.36l13.09-17.07Zm11.92-17.5-6.85,20q-.93-.34-1.83-.75Zm.65-.35-4.73,21.25c-.78-.19-1.55-.42-2.3-.68Zm.49.1-2.35,21.66.49.06,2.42-22.24.68,22.37a25.69,25.69,0,0,1-6-.59Zm2.2-.18,8.76,19.89a23.66,23.66,0,0,1-2.22.85Zm6.06,20.9a27.51,27.51,0,0,1-3,.74l-3.68-22.09Zm-5.59-21.08,10.85,18.76c-.68.39-1.38.76-2.1,1.1Zm.43-.25,12.8,17.42a23.12,23.12,0,0,1-2,1.33Zm.18-.6L133,104.8a25.55,25.55,0,0,1-2.08,1.82Zm.83-1.14,19.56,9.65a23.63,23.63,0,0,1-1.38,2.52Zm17.92,12.6c-.43.66-.89,1.31-1.38,1.93L118.86,88.43Zm-17-12.7L139.31,95c-.24.66-.5,1.3-.79,1.93Zm-.11-.58,20.51,5.22c-.18.76-.39,1.51-.63,2.24Zm-.06-.53,21.06,2.79c-.09.83-.22,1.66-.39,2.47Zm.25-.47,21,.45q0,1.17-.09,2.31Zm-.23-1L140,80.46c.19.8.36,1.6.48,2.42Zm-.11-.49,19.66-6.93c.29.76.54,1.54.76,2.34Zm-.17-.47L137.88,75q.56,1.08,1,2.22Zm-.21-.45,17.32-11.21c.46.67.88,1.37,1.27,2.08Zm-.28-.42,15.82-13.1-.26-.3a23.23,23.23,0,0,1,1.76,2.2Zm-.31-.39L132.57,68c.59.54,1.16,1.11,1.7,1.71ZM132.21,67.7,118.09,82.5l12.25-16.31C131,66.66,131.61,67.16,132.21,67.7Zm-35,1.36,14.9,14L95.59,70.86C96.09,70.24,96.61,69.63,97.17,69.06Zm-7.08,18.7,21-1.46L90.32,90.16c-.09-.65-.17-1.3-.21-2C90.1,88.05,90.1,87.91,90.09,87.76Zm7.4,16.77,15-15.51L99.31,106.18C98.68,105.66,98.07,105.11,97.49,104.53Zm18.9,7.41-.68-22.3,3.67,22a24.2,24.2,0,0,1-2.42.27Zm17-7.49L118.53,88.8,135,102.68A22.22,22.22,0,0,1,133.38,104.45Z"/><path class="cls-1" d="M146.15,85a1.33,1.33,0,1,0-1-2.29,31.14,31.14,0,0,0-.7-3.66,1.27,1.27,0,0,0,.86,0,1.33,1.33,0,0,0-.72-2.56,1.24,1.24,0,0,0-.72.52,29.44,29.44,0,0,0-1.41-3.48,1.32,1.32,0,0,0,.89-.1,1.33,1.33,0,0,0-1.21-2.38,1.36,1.36,0,0,0-.62.68,30.43,30.43,0,0,0-2.09-3.17,1.31,1.31,0,0,0,.9-.28,1.33,1.33,0,1,0-1.64-2.1,1.31,1.31,0,0,0-.49.84,30.46,30.46,0,0,0-2.7-2.75,1.3,1.3,0,0,0,.88-.45,1.33,1.33,0,0,0-2-1.75,1.31,1.31,0,0,0-.32,1,29.55,29.55,0,0,0-3.21-2.22,1.32,1.32,0,0,0,.81-.62,1.34,1.34,0,0,0-2.32-1.33,1.41,1.41,0,0,0-.12,1,30.43,30.43,0,0,0-3.6-1.58,1.31,1.31,0,0,0,.69-.77,1.33,1.33,0,1,0-2.43.2A29.52,29.52,0,0,0,120,57a1.37,1.37,0,0,0,.54-.9,1.33,1.33,0,1,0-2.34.67,30.77,30.77,0,0,0-4-.11,1.32,1.32,0,0,0,.37-1,1.34,1.34,0,1,0-2.67.17,1.33,1.33,0,0,0,.5.94,31.62,31.62,0,0,0-4.92.88,1.3,1.3,0,0,0,.14-1.14,1.33,1.33,0,0,0-2.52.88h0a1.33,1.33,0,0,0,.7.77,30.22,30.22,0,0,0-4.91,2.13,1.33,1.33,0,1,0-2.44.39h0a1.29,1.29,0,0,0,.76.6,29.65,29.65,0,0,0-3.09,2.24,1.26,1.26,0,0,0-.32-.86,1.33,1.33,0,1,0-2,1.76,1.3,1.3,0,0,0,.82.43,30.4,30.4,0,0,0-2.57,2.75,1.29,1.29,0,0,0-.47-.73A1.33,1.33,0,1,0,90,69a1.31,1.31,0,0,0,.82.26,30.36,30.36,0,0,0-2,3.13,1.33,1.33,0,1,0-1.76,1.82,1.25,1.25,0,0,0,.8.12,29.38,29.38,0,0,0-1.29,3.38,1.34,1.34,0,0,0-2.28.55,1.33,1.33,0,0,0,.94,1.63,1.31,1.31,0,0,0,.76,0,28,28,0,0,0-.59,3.53,1.37,1.37,0,0,0-.68-.25,1.34,1.34,0,0,0-1.42,1.24,1.32,1.32,0,0,0,1.23,1.42,1.36,1.36,0,0,0,.72-.15c0,.89,0,1.78,0,2.69,0,.29,0,.58.07.88a1.27,1.27,0,0,0-.7-.12A1.33,1.33,0,0,0,85,91.71a1.3,1.3,0,0,0,.67-.28,28.68,28.68,0,0,0,.81,3.47,1.36,1.36,0,0,0-.72,0,1.33,1.33,0,1,0,.83,2.53,1.38,1.38,0,0,0,.61-.41,28.88,28.88,0,0,0,1.48,3.25,1.34,1.34,0,1,0,.58,2.5,1.3,1.3,0,0,0,.53-.56,32.22,32.22,0,0,0,2.12,2.94,1.27,1.27,0,0,0-.73.3,1.34,1.34,0,0,0-.16,1.88h0a1.34,1.34,0,0,0,1.88.16,1.27,1.27,0,0,0,.43-.7A29.05,29.05,0,0,0,96,109.33a1.33,1.33,0,1,0,1.37,2.12,1.36,1.36,0,0,0,.28-.83,29.59,29.59,0,0,0,3.17,2,1.33,1.33,0,1,0,1.71,1.83,1.35,1.35,0,0,0,.11-.9,32.59,32.59,0,0,0,3.53,1.36,1.29,1.29,0,0,0-.56.73,1.33,1.33,0,1,0,2.56.75,1.38,1.38,0,0,0-.08-.94,29,29,0,0,0,3.76.66,1.32,1.32,0,0,0-.43.86h0a1.33,1.33,0,1,0,2.65.25,1.31,1.31,0,0,0-.28-.95,28.47,28.47,0,0,0,3.33,0l.53,0a1.33,1.33,0,1,0,2.38.67,1.34,1.34,0,0,0-.48-.88,31,31,0,0,0,3.79-.79,1.32,1.32,0,0,0-.08,1,1.34,1.34,0,0,0,1.66.89,1.35,1.35,0,0,0,.89-1.67,1.33,1.33,0,0,0-.64-.77,30.37,30.37,0,0,0,3.56-1.5,1.37,1.37,0,0,0,.11,1,1.34,1.34,0,0,0,2.36-1.26,1.33,1.33,0,0,0-.77-.63,29.3,29.3,0,0,0,3.2-2.15,1.32,1.32,0,0,0,.29.92,1.34,1.34,0,0,0,2.07-1.69,1.31,1.31,0,0,0-.86-.47,30.13,30.13,0,0,0,2.72-2.7,1.31,1.31,0,0,0,.46.82,1.33,1.33,0,1,0,.8-2.35,32.06,32.06,0,0,0,2.13-3.14,1.3,1.3,0,0,0,.59.68,1.33,1.33,0,0,0,1.81-.53,1.34,1.34,0,0,0-.53-1.81,1.38,1.38,0,0,0-.91-.13,29.89,29.89,0,0,0,1.47-3.44,1.4,1.4,0,0,0,.69.52,1.34,1.34,0,1,0-.08-2.51,27.66,27.66,0,0,0,.76-3.64,1.36,1.36,0,0,0,.77.37,1.33,1.33,0,0,0,.3-2.65,1.29,1.29,0,0,0-.86.2,30.74,30.74,0,0,0,0-3.72A1.28,1.28,0,0,0,146.15,85Zm-29,30.48a29.09,29.09,0,1,1,27.44-30.84A29.23,29.23,0,0,1,117.11,115.48Z"/><path class="cls-1" d="M118.2,88.33l-1.32.08-2.12.13-1.32.08-15,40.92,3.45-.21.06-.17v.16l32.67-2,.44,0,3-.19Zm-15.28,38.22L116,90.9l17.33,33.77Z"/><path class="cls-1" d="M77.4,178.18l2.13-.13L79.28,174l-4,.24c-4.9-7.13-7.55-16.95-7.55-16.95l3.19-.19-.19-3.17-3.38.21A235.46,235.46,0,0,1,62.61,114l2.52-.16-.35-5.55L61.64,107l-.44-7.18-2.08.13.44,7.18-3,1.68.34,5.56,2.52-.16a236.37,236.37,0,0,1,.17,40.39l-3.37.21.2,3.16,3.18-.19s-1.25,10.05-5.23,17.73l-3.61.22.25,4.07,2.14-.13A113,113,0,0,1,39,202.23l11.19-.69s1.35-14.71,15.48-16c14.19-.47,17.34,14,17.34,14l11.19-.69A109.68,109.68,0,0,1,77.4,178.18ZM62.81,162l2.52-.15c.79,4.85,5,12.66,5,12.66l-10.84.67S62.25,167.31,62.81,162Z"/><path class="cls-1" d="M196.89,112.06l-1-15.58.37,0,0-.43.53,0-.09-1.41-.89.06-.26-4.19v-.1l-.15-2.52h0l-.8-2.26-.05-.77h.22v-.12h-.21l0-.32h-.1l0,.32h-.22v.12h.22l.05.77L194,87.92l.16,2.52-.64,0-.19-3L191.71,83l-.1-1.55.43,0v-.24l-.43,0,0-.64h-.19l0,.64-.44,0v.24l.45,0,.09,1.55-1,4.71.18,3-.67,0-.16-2.51h0l-.8-2.27-.05-.76.22,0V85L189,85l0-.32h-.1l0,.32-.22,0v.12l.22,0,.05.77-.52,2.34h0l.15,2.51v.1l.1,1.71-4.51.28,0-.39,0-.55-.29,0,0,.55-1.35.08,0-.55-.29,0,0,.55,0,.39-9.61.59-.06-.94-.55,0,.06.93-2.5.16-.06-.94-.55,0,.06.94-9.61.59,0-.38,0-.55h-.29l0,.56-1.35.08,0-.55-.29,0,0,.55,0,.38-4.5.28-.11-1.71V93l-.16-2.51h0l-.79-2.27-.05-.77h.21V87.3l-.22,0,0-.32h-.09v.32l-.22,0v.11h.22l.05.77-.52,2.34.16,2.52-.64,0-.18-3-1.61-4.55L149,84.06l.43,0,0-.24-.43,0,0-.64h-.19l0,.64-.45,0v.24l.45,0,.1,1.55-1,4.72.19,2.94-.68,0-.15-2.51h0l-.8-2.26,0-.77.21,0v-.11h-.22l0-.32h-.1l0,.31-.22,0v.12l.22,0,.05.77-.52,2.35h0l.16,2.51v.11l.26,4.18-1,.06.09,1.41.62,0,0,.43.33,0,1,15.58-2.31.15.29,4.67,11.34-.7-.09-1.37c.52-1.77,14.24-10,14.24-10l-.91-1.39-15,8.13-.61,0-1-15.58.36,0,0-.43.53,0-.07-1,3.61-.23,1.92-.11,9.6-.6,3.61-.22,9.6-.59,1.93-.12,3.55-.22.06,1,.63,0,0,.43.34,0,1,15.58-.62,0-15.86-6.22-.73,1.49s13,5.71,15.09,7.78l.11,1.73,11.33-.7-.29-4.68ZM153.1,96.23,153,95l4.5-.28L157.6,96Zm6.42-.4-.08-1.26,9.61-.59.08,1.26ZM172.73,95l-.08-1.27,9.61-.59.08,1.27Zm11.45-2,4.51-.28.08,1.27-4.51.28Z"/><path class="cls-1" d="M36,151.93a1,1,0,0,0,.94-1c0-.53-1-1.52-1-1.52s-.94,1-.93,1.55A1,1,0,0,0,36,151.93Z"/><path class="cls-1" d="M52,175.07l-.46-.38a1,1,0,0,0-1.47.19l-.54.74-.88-.38a.29.29,0,0,1-.18-.21l-1-3.53a.31.31,0,0,0-.32-.23h0a1.89,1.89,0,0,0-.74-1l-.22-.14-1.28-4.71a.61.61,0,0,0,.23-.36l1.28-.19a.12.12,0,0,0,0-.23c-.48,0-1-.1-1.41-.1a2.28,2.28,0,0,0-.22-.22L45,164a.09.09,0,0,1,.07,0l2.12-.34-2.4,0a.11.11,0,0,1-.09-.19l1.22-1.4a.12.12,0,0,0-.15-.17L44.21,163l-.05,0-.4,0a.14.14,0,0,1-.13-.09l-.42-1.8a.11.11,0,0,0-.22,0L42.62,163a.1.1,0,0,1-.11.09l-.41,0-.05,0c-.16-.09-1-.62-1.59-1a.11.11,0,0,0-.15.17l1.26,1.35a.12.12,0,0,1-.09.19l-2.4,0,2.13.27a.09.09,0,0,1,.07,0l.29.3-.2.21c-.37,0-.95.09-1.44.16a.12.12,0,0,0,0,.23l1.31.15a.65.65,0,0,0,.15.27l-.54,2.27-1.54-1.07h0l.11-.11a.28.28,0,0,0,0-.32L38.82,165a.3.3,0,0,0-.19-.13l-1.91-6.21-.1-.38a1,1,0,0,0,.09-.43,1.06,1.06,0,0,0-.18-.55v-.45h0l.13-1.47h0l1.18-.5a.14.14,0,0,0-.06-.26l-1.74,0,1.37,0a.79.79,0,0,0,.74-1l-.14-.44a.8.8,0,0,0-.77-.56H37v-.16a.34.34,0,0,0-.34-.33l-1.19,0a.33.33,0,0,0-.33.33v.17h-.31a.81.81,0,0,0-.76.58l-.12.45a.8.8,0,0,0,.78,1h-.38a.14.14,0,0,0-.05.27l1.19.46h0l.13,1.45a1,1,0,0,0-1,1,1,1,0,0,0,.89,1l.9,7.27a.27.27,0,0,0-.43.11,4.89,4.89,0,0,1-.35.79,10.17,10.17,0,0,0,.83,2,.28.28,0,0,0,.44.07l.13-.14L38.41,173l4.1-2.66h0l-4.86,3.15a1.47,1.47,0,0,0-.38,1.45l.77,2.61h0l-.36.4a1.24,1.24,0,0,0-.18,1.42l.73,1.39-.68,1.14a1.55,1.55,0,0,0-.08,1.39l.93,2.11,0,0a.29.29,0,0,0,0,.13l.63,5.32a.45.45,0,0,0,.11.23.44.44,0,0,0,.27.58l.18.07-.84,2.45h-1l0,1.31,10.49-.17,0-1.3h-.33a.38.38,0,0,0,0-.15l-1-7,.56-.31a.67.67,0,0,0,.35-.69l0-.17a.13.13,0,0,0,.24,0l.32-1.27L48,180.47a1,1,0,0,0,1.52-.18l.91-1.36a.81.81,0,0,0,.34.15l.2,0a.73.73,0,0,0,.84-.55.77.77,0,0,0-.21-.72l-.15-.13-.13-.1.87-1.3A.92.92,0,0,0,52,175.07Z"/><path class="cls-1" d="M400.58,66.18c-.31-4-.59-8.06-.95-12.08a2.6,2.6,0,0,1,1.06-2.5c5.39-4.55,11.76-7.15,18.36-9.3,1.75-.57,3.56-1,5.34-1.52a1.37,1.37,0,0,1,1.94.9c1,2.43,2.22,4.8,3.32,7.2.5,1.06,3.11,6,3.32,6.55.48,1.17,1.11,2.28,1.68,3.41,2.16-.12,4.39.15,6.24-1.39a3.18,3.18,0,0,1,1.54-.75c6.42-.53,12.85-1,19.27-1.49a6.14,6.14,0,0,1,.81,0c.63,8.14,1.25,16.23,1.89,24.53l-3.22.25q-28.74,2.2-57.48,4.45c-1.48.12-1.85-.32-1.87-1.67C401.81,81.18,400.82,69.25,400.58,66.18Zm54.47,13.18c-.16-2-.25-3.79-.45-5.58a2.22,2.22,0,0,0-2.35-1.93c-1.18,0-2.48,1-2.45,2,0,1.93.27,3.86.42,5.86Zm-13.64-10c-.16-2-.25-4-.49-6-.11-.91-1.56-1.66-2.65-1.56A2.26,2.26,0,0,0,436.12,64c.08,1.88.27,3.76.43,5.8Zm.59,11c-.15-2-.25-3.89-.46-5.77a2.42,2.42,0,0,0-2.47-1.83c-1.05.07-2.3,1.1-2.27,2.11.05,1.93.27,3.86.42,5.86Zm-32.52,2.49c-.15-2-.25-3.85-.46-5.73a2.5,2.5,0,0,0-2.48-1.85,2.44,2.44,0,0,0-2.29,2.08c.05,1.93.27,3.86.42,5.86Zm8.22-.56c1.46-.11,2.79-.18,4.11-.35a1.07,1.07,0,0,0,.61-.83c-.07-1.66-.18-3.32-.38-5a2.23,2.23,0,0,0-2.48-1.75,2.15,2.15,0,0,0-2.28,2.12C417.34,78.41,417.54,80.28,417.7,82.31Zm43.21-14.43c-.15-2-.27-3.72-.42-5.42a2.25,2.25,0,0,0-2.13-2.14,2.19,2.19,0,0,0-2.54,1.84c-.11,2,0,4.1.07,6.11ZM430,70.2c1.39,0,2.64-.16,3.87-.1,1,.05.79-.65.79-1,0-1.57-.14-3.14-.29-4.71A2.26,2.26,0,0,0,432,62.34a2.29,2.29,0,0,0-2.42,2C429.6,66.31,429.84,68.24,430,70.2Zm.73,11.11c1.48-.11,2.77-.16,4-.35a1.12,1.12,0,0,0,.67-.87c-.09-1.66-.25-3.32-.49-5-.21-1.43-1.12-2-2.61-1.81a2.37,2.37,0,0,0-2,2.26C430.38,77.42,430.56,79.26,430.72,81.31Zm-22.08-9.38c-.16-2.09-.24-4-.48-5.93a2.46,2.46,0,0,0-4.76.46c.06,1.91.27,3.82.43,5.84Zm6.46-.46c-.17-2.11-.2-4.18-.53-6.21-.18-1-1.22-1.46-2.3-1.41s-2.19.67-2.22,1.73a59.09,59.09,0,0,0,.42,6.25Zm6.62-.53c-.17-2.08-.27-3.92-.46-5.75a2.2,2.2,0,0,0-2.38-1.84,2.26,2.26,0,0,0-2.37,2.07c.05,2,.28,3.93.43,5.89Zm32.71-2.54c-.16-2-.26-3.76-.44-5.51a2.43,2.43,0,0,0-4.8,0c.06,1.92.27,3.84.43,5.93Zm-26.18,2.09c-.15-2-.27-3.75-.43-5.53a2.29,2.29,0,0,0-2.58-2.13,2.33,2.33,0,0,0-2.14,2.55c.09,1.39.24,2.78.3,4.17,0,1-.32,1.36,1.45,1.24C425.92,70.71,427,70.58,428.25,70.49ZM447.84,69c-.16-2.09-.23-4-.47-5.87a2.08,2.08,0,0,0-2.19-1.75c-1.21-.08-2.35.52-2.4,1.64a53.54,53.54,0,0,0,.42,6.34ZM429,81.4c-.15-2-.24-3.9-.46-5.77a2.11,2.11,0,0,0-2.29-1.81,2.07,2.07,0,0,0-2.33,1.76,59.4,59.4,0,0,0,.42,6.18Zm32.5-2.52c-.16-2.06-.2-4-.5-6a2,2,0,0,0-2.36-1.53c-1.09.1-2.22.64-2.22,1.91,0,2,.26,3.94.41,6ZM416,82.37c-.16-2-.26-3.84-.46-5.68a2.38,2.38,0,0,0-4.68.17c.07,1.93.27,3.86.43,5.87Zm32.49-2.5c-.15-2-.19-4-.5-6-.19-1.26-1.3-1.59-2.47-1.48s-2.14.69-2.13,1.95c0,1.93.27,3.85.42,5.85Zm-35.11-19.7c-.15-2-.18-3.82-.48-5.62a1.78,1.78,0,0,0-2.17-1.29,1.92,1.92,0,0,0-2,1.82c0,1.78.23,3.56.37,5.42Zm18.11-1.4c-.13-1.74-.2-3.4-.4-5-.15-1.18-1.49-2.29-2.48-1.92-.77.29-1.83,1.11-1.88,1.75a37.63,37.63,0,0,0,.33,5.55Zm-5.9.46c-.14-1.84-.26-3.48-.39-5.11a2.46,2.46,0,0,0-2.2-1.8c-1.26,0-2.39.78-2.35,1.85.06,1.78.25,3.57.39,5.41Zm-18.21,1.38c-.14-1.8-.23-3.5-.42-5.2a2.17,2.17,0,0,0-4.26.13c0,1.78.23,3.57.37,5.4Zm12.1-.92c-.14-1.81-.19-3.43-.41-5-.15-1.06-.72-1.92-2-1.87s-2.46,1-2.41,1.86c.09,1.78.26,3.55.4,5.37Z"/><path class="cls-1" d="M81.31,3.17l.17-.09C85.47.87,89-.72,93.67.33l96.05,21.34a10.65,10.65,0,0,0,7.72-1.23,108.76,108.76,0,0,0,12.42-8.22c4.75-4,10.22-9.27,10.22-9.27l8.79,2.61L217.41,27.82l6.42,1.43a1.58,1.58,0,0,1,0,3.09l-13.74,3.18a82.73,82.73,0,0,1-34.92.51L170,35c4.19,5.08,8.69,10.65,8.79,11.21.17,1.05-17-3.16-18.63-3.87-.63-.28-4.95-4.13-9.88-8.64a6.49,6.49,0,0,1-4.89-1.15A7.58,7.58,0,0,1,143,29.48c-17.56-3.64-35.37-7.45-45.23-9.9-5.61-1.4-21-6.58-22.33-11.64C74.71,5.18,79.42,4.12,81.31,3.17Zm108.6,23.35a1.07,1.07,0,1,0-.82-1.28A1.07,1.07,0,0,0,189.91,26.52Zm-4.57-1a1.08,1.08,0,1,0-.81-1.28A1.08,1.08,0,0,0,185.34,25.5Zm-4.56-1A1.08,1.08,0,1,0,180,23.2,1.07,1.07,0,0,0,180.78,24.48Zm-4.56-1a1.08,1.08,0,1,0-.81-1.29A1.07,1.07,0,0,0,176.22,23.46Zm-17.05-3.82a1.08,1.08,0,1,0-.81-1.29A1.07,1.07,0,0,0,159.17,19.64Zm-4.56-1a1.07,1.07,0,1,0-.81-1.28A1.07,1.07,0,0,0,154.61,18.61Zm-4.56-1a1.07,1.07,0,0,0,1.28-.81,1.08,1.08,0,1,0-2.1-.47A1.07,1.07,0,0,0,150.05,17.59Zm-4.57-1a1.08,1.08,0,1,0,.47-2.1,1.08,1.08,0,0,0-.47,2.1Zm-17-3.82a1.08,1.08,0,1,0-.82-1.28A1.08,1.08,0,0,0,128.44,12.75Zm-4.57-1a1.08,1.08,0,1,0,.47-2.1,1.08,1.08,0,0,0-.47,2.1Zm-4.56-1a1.07,1.07,0,1,0-.81-1.28A1.07,1.07,0,0,0,119.31,10.7Zm-4.56-1a1.08,1.08,0,0,0,.47-2.1,1.09,1.09,0,0,0-1.29.82A1.07,1.07,0,0,0,114.75,9.68Zm-4.56-1a1.08,1.08,0,1,0-.82-1.28A1.08,1.08,0,0,0,110.19,8.66Zm-4.57-1a1.08,1.08,0,1,0,.47-2.1,1.08,1.08,0,0,0-.47,2.1Zm-4.56-1a1.07,1.07,0,1,0-.81-1.28A1.07,1.07,0,0,0,101.06,6.61ZM88,5.21a2.39,2.39,0,0,0,2.85-1.8,1.25,1.25,0,0,0-1-1.49,2.37,2.37,0,0,0-2.84,1.8A1.24,1.24,0,0,0,88,5.21Z"/><polyline class="cls-1" points="404.25 51.74 227.03 7.56 228.87 5.56 406.09 49.74"/><polyline class="cls-1" points="432.12 110.48 170.86 44.98 172.7 42.99 433.96 108.49"/><polyline class="cls-1" points="425.54 92.14 189.8 33.85 191.04 33.26 426.79 91.55"/></g></g></g></g></svg>